<svg width="115" height="27" viewBox="0 0 115 27" fill="none" xmlns="http://www.w3.org/2000/svg">
<path d="M104.062 26.4844C102.292 26.4844 100.99 26.0221 100.156 25.0977C99.3359 24.1602 98.9258 22.9232 98.9258 21.3867C98.9258 20.2279 99.1667 19.1862 99.6484 18.2617C100.13 17.3242 101.107 16.5365 102.578 15.8984C104.049 15.2604 106.152 14.9414 108.887 14.9414V13.7891C108.887 13.112 108.672 12.6107 108.242 12.2852C107.812 11.9596 107.129 11.7969 106.191 11.7969C105.41 11.7969 104.74 11.8815 104.18 12.0508C103.62 12.207 103.014 12.4219 102.363 12.6953C102.025 12.8516 101.816 12.9297 101.738 12.9297C101.504 12.9297 101.243 12.7539 100.957 12.4023C100.684 12.0508 100.443 11.6471 100.234 11.1914C100.026 10.7357 99.9219 10.3906 99.9219 10.1562C99.9219 9.7526 100.208 9.36849 100.781 9.00391C101.367 8.6263 102.168 8.32682 103.184 8.10547C104.199 7.87109 105.326 7.75391 106.562 7.75391C109.167 7.75391 111.061 8.27474 112.246 9.31641C113.431 10.3451 114.023 11.7578 114.023 13.5547V20.0586C114.023 21.1393 114.049 21.9792 114.102 22.5781C114.167 23.1771 114.251 23.7695 114.355 24.3555C114.421 24.707 114.453 24.9544 114.453 25.0977C114.453 25.3581 114.206 25.5729 113.711 25.7422C113.229 25.9115 112.676 26.0352 112.051 26.1133C111.426 26.1914 110.924 26.2305 110.547 26.2305C110.143 26.2305 109.85 26.0612 109.668 25.7227C109.499 25.3711 109.362 24.8958 109.258 24.2969C109.245 24.2188 109.232 24.1406 109.219 24.0625C109.206 23.9844 109.186 23.9062 109.16 23.8281C109.03 24.0755 108.75 24.4076 108.32 24.8242C107.904 25.2409 107.331 25.625 106.602 25.9766C105.872 26.3151 105.026 26.4844 104.062 26.4844ZM105.762 22.4023C106.413 22.4023 107.025 22.2005 107.598 21.7969C108.171 21.3802 108.6 20.8529 108.887 20.2148V18.3008C105.645 18.3008 104.023 19.1536 104.023 20.8594C104.023 21.3151 104.173 21.6862 104.473 21.9727C104.785 22.2591 105.215 22.4023 105.762 22.4023Z" fill="white"/>
<path d="M89.2383 26.4844C86.1914 26.4844 83.9193 25.6706 82.4219 24.043C80.9245 22.4023 80.1758 20.1302 80.1758 17.2266C80.1758 13.9583 80.9245 11.5625 82.4219 10.0391C83.9193 8.51562 85.9831 7.75391 88.6133 7.75391C90.3581 7.75391 91.7839 8.15104 92.8906 8.94531C94.0104 9.73958 94.8242 10.8073 95.332 12.1484C95.8529 13.4896 96.1133 15.0065 96.1133 16.6992C96.1133 16.8945 95.9961 17.1549 95.7617 17.4805C95.5404 17.806 95.2865 18.099 95 18.3594C94.7135 18.6198 94.4922 18.75 94.3359 18.75H85.4883C85.6055 20.0781 85.9961 21.0221 86.6602 21.582C87.3372 22.1289 88.2747 22.4023 89.4727 22.4023C90.1237 22.4023 90.7096 22.3307 91.2305 22.1875C91.7643 22.0312 92.3307 21.8294 92.9297 21.582C93.2943 21.4128 93.5417 21.3281 93.6719 21.3281C93.9062 21.3281 94.1602 21.4974 94.4336 21.8359C94.7201 22.1615 94.9609 22.5391 95.1562 22.9688C95.3646 23.3984 95.4688 23.7305 95.4688 23.9648C95.4688 24.4987 95.1042 24.9544 94.375 25.332C93.6589 25.7096 92.806 25.9961 91.8164 26.1914C90.8398 26.3867 89.9805 26.4844 89.2383 26.4844ZM91.1133 15.332C91.1133 14.2643 90.9049 13.4115 90.4883 12.7734C90.0716 12.1224 89.4466 11.7969 88.6133 11.7969C86.8945 11.7969 85.8529 12.9753 85.4883 15.332H91.1133Z" fill="white"/>
<path d="M71.3477 7.75391C73.0794 7.75391 74.3555 8.20964 75.1758 9.12109C76.0091 10.0326 76.4258 11.4453 76.4258 13.3594V25.1562C76.4258 25.8854 75.7227 26.25 74.3164 26.25H73.3594C71.9792 26.25 71.2891 25.8854 71.2891 25.1562V14.1406C71.2891 13.4375 71.1263 12.9036 70.8008 12.5391C70.4883 12.1745 69.9609 11.9922 69.2188 11.9922C68.5677 11.9922 68.0143 12.194 67.5586 12.5977C67.1159 12.9883 66.7578 13.444 66.4844 13.9648V25.1562C66.4844 25.8854 65.7878 26.25 64.3945 26.25H63.418C62.0378 26.25 61.3477 25.8854 61.3477 25.1562V14.1406C61.3477 13.4375 61.1849 12.9036 60.8594 12.5391C60.5469 12.1745 60.026 11.9922 59.2969 11.9922C58.6719 11.9922 58.1185 12.2005 57.6367 12.6172C57.168 13.0339 56.8099 13.4961 56.5625 14.0039V25.1562C56.5625 25.8854 55.8594 26.25 54.4531 26.25H53.4961C52.1159 26.25 51.4258 25.8854 51.4258 25.1562V14.1406C51.4258 12.474 51.3151 11.0872 51.0938 9.98047C51.0286 9.62891 50.9961 9.38151 50.9961 9.23828C50.9961 8.97786 51.237 8.76953 51.7188 8.61328C52.2135 8.44401 52.7669 8.32031 53.3789 8.24219C54.0039 8.16406 54.5052 8.125 54.8828 8.125C55.2865 8.125 55.5664 8.27474 55.7227 8.57422C55.8919 8.8737 56.0417 9.3099 56.1719 9.88281L56.2891 10.3906C56.8359 9.64844 57.5651 9.02344 58.4766 8.51562C59.388 8.00781 60.3711 7.75391 61.4258 7.75391C62.6237 7.75391 63.5938 7.96875 64.3359 8.39844C65.0911 8.82812 65.6445 9.49219 65.9961 10.3906C66.582 9.64844 67.3503 9.02344 68.3008 8.51562C69.2513 8.00781 70.2669 7.75391 71.3477 7.75391Z" fill="white"/>
<path d="M36.9141 26.4844C35.1432 26.4844 33.8411 26.0221 33.0078 25.0977C32.1875 24.1602 31.7773 22.9232 31.7773 21.3867C31.7773 20.2279 32.0182 19.1862 32.5 18.2617C32.9818 17.3242 33.9583 16.5365 35.4297 15.8984C36.901 15.2604 39.0039 14.9414 41.7383 14.9414V13.7891C41.7383 13.112 41.5234 12.6107 41.0938 12.2852C40.6641 11.9596 39.9805 11.7969 39.043 11.7969C38.2617 11.7969 37.5911 11.8815 37.0312 12.0508C36.4714 12.207 35.8659 12.4219 35.2148 12.6953C34.8763 12.8516 34.668 12.9297 34.5898 12.9297C34.3555 12.9297 34.0951 12.7539 33.8086 12.4023C33.5352 12.0508 33.2943 11.6471 33.0859 11.1914C32.8776 10.7357 32.7734 10.3906 32.7734 10.1562C32.7734 9.7526 33.0599 9.36849 33.6328 9.00391C34.2188 8.6263 35.0195 8.32682 36.0352 8.10547C37.0508 7.87109 38.1771 7.75391 39.4141 7.75391C42.0182 7.75391 43.9128 8.27474 45.0977 9.31641C46.2826 10.3451 46.875 11.7578 46.875 13.5547V20.0586C46.875 21.1393 46.901 21.9792 46.9531 22.5781C47.0182 23.1771 47.1029 23.7695 47.207 24.3555C47.2721 24.707 47.3047 24.9544 47.3047 25.0977C47.3047 25.3581 47.0573 25.5729 46.5625 25.7422C46.0807 25.9115 45.5273 26.0352 44.9023 26.1133C44.2773 26.1914 43.776 26.2305 43.3984 26.2305C42.9948 26.2305 42.7018 26.0612 42.5195 25.7227C42.3503 25.3711 42.2135 24.8958 42.1094 24.2969C42.0964 24.2188 42.0833 24.1406 42.0703 24.0625C42.0573 23.9844 42.0378 23.9062 42.0117 23.8281C41.8815 24.0755 41.6016 24.4076 41.1719 24.8242C40.7552 25.2409 40.1823 25.625 39.4531 25.9766C38.724 26.3151 37.8776 26.4844 36.9141 26.4844ZM38.6133 22.4023C39.2643 22.4023 39.8763 22.2005 40.4492 21.7969C41.0221 21.3802 41.4518 20.8529 41.7383 20.2148V18.3008C38.4961 18.3008 36.875 19.1536 36.875 20.8594C36.875 21.3151 37.0247 21.6862 37.3242 21.9727C37.6367 22.2591 38.0664 22.4023 38.6133 22.4023Z" fill="white"/>
<path d="M27.2266 26.4844C25.5729 26.4844 24.3099 26.0221 23.4375 25.0977C22.5781 24.1602 22.1484 22.7409 22.1484 20.8398V1.13281C22.1484 0.377604 22.8451 0 24.2383 0H25.2148C25.931 0 26.4518 0.0976562 26.7773 0.292969C27.1159 0.47526 27.2852 0.755208 27.2852 1.13281V20.8984C27.2852 21.4323 27.3828 21.8164 27.5781 22.0508C27.7734 22.2852 28.099 22.4023 28.5547 22.4023C28.6719 22.4023 28.8477 22.3763 29.082 22.3242C29.1471 22.3112 29.2122 22.2982 29.2773 22.2852C29.3424 22.2721 29.4141 22.2656 29.4922 22.2656C29.6875 22.2656 29.8633 22.4414 30.0195 22.793C30.1888 23.1315 30.319 23.5156 30.4102 23.9453C30.5013 24.362 30.5469 24.6354 30.5469 24.7656C30.5469 25.9115 29.4401 26.4844 27.2266 26.4844Z" fill="white"/>
<path d="M11.4258 26.4844C7.51953 26.4844 4.63542 25.4688 2.77344 23.4375C0.924479 21.4062 0 18.2487 0 13.9648C0 5.72266 3.86719 1.60156 11.6016 1.60156C12.6562 1.60156 13.75 1.70573 14.8828 1.91406C16.0156 2.1224 16.9596 2.41536 17.7148 2.79297C18.4831 3.15755 18.8672 3.56771 18.8672 4.02344C18.8672 4.34896 18.737 4.77865 18.4766 5.3125C18.2161 5.83333 17.9036 6.29557 17.5391 6.69922C17.1875 7.10286 16.875 7.30469 16.6016 7.30469C16.5365 7.30469 16.3607 7.23958 16.0742 7.10938C15.4492 6.84896 14.7917 6.63411 14.1016 6.46484C13.4245 6.28255 12.5586 6.19141 11.5039 6.19141C9.45964 6.19141 7.94271 6.84245 6.95312 8.14453C5.97656 9.43359 5.48828 11.3867 5.48828 14.0039C5.48828 16.6211 5.98307 18.5938 6.97266 19.9219C7.96224 21.25 9.44661 21.9141 11.4258 21.9141C12.4544 21.9141 13.3464 21.8099 14.1016 21.6016C14.8698 21.3932 15.6185 21.1263 16.3477 20.8008C16.3867 20.7878 16.5039 20.7422 16.6992 20.6641C16.8945 20.5729 17.0378 20.5273 17.1289 20.5273C17.4674 20.5273 17.793 20.7292 18.1055 21.1328C18.418 21.5234 18.6719 21.9727 18.8672 22.4805C19.0625 22.9753 19.1602 23.3333 19.1602 23.5547C19.1602 24.1927 18.7305 24.7331 17.8711 25.1758C17.0247 25.6185 15.9961 25.9505 14.7852 26.1719C13.5872 26.3802 12.4674 26.4844 11.4258 26.4844Z" fill="white"/>
</svg>
