<svg width="40" height="40" viewBox="0 0 40 40" fill="none" xmlns="http://www.w3.org/2000/svg">
<path fill-rule="evenodd" clip-rule="evenodd" d="M8.74998 15C8.74998 12.0163 9.93524 9.15483 12.045 7.04505C14.1548 4.93526 17.0163 3.75 20 3.75C22.9837 3.75 25.8451 4.93526 27.9549 7.04505C30.0647 9.15483 31.25 12.0163 31.25 15V16.25C31.25 19.7883 32.5833 23.0117 34.78 25.45C34.9168 25.6016 35.0144 25.7845 35.0642 25.9826C35.114 26.1807 35.1145 26.388 35.0657 26.5863C35.0168 26.7846 34.9201 26.968 34.784 27.1203C34.6479 27.2726 34.4766 27.3892 34.285 27.46C31.7116 28.41 29.0183 29.11 26.2333 29.5317C26.296 30.3886 26.1814 31.2492 25.8965 32.0598C25.6117 32.8704 25.1628 33.6136 24.5778 34.2429C23.9929 34.8722 23.2844 35.3742 22.4968 35.7174C21.7091 36.0606 20.8592 36.2378 20 36.2378C19.1408 36.2378 18.2908 36.0606 17.5032 35.7174C16.7155 35.3742 16.0071 34.8722 15.4221 34.2429C14.8372 33.6136 14.3883 32.8704 14.1034 32.0598C13.8186 31.2492 13.7039 30.3886 13.7666 29.5317C11.0194 29.1153 8.32162 28.4207 5.71498 27.4583C5.52353 27.3877 5.3523 27.2712 5.21624 27.1191C5.08019 26.967 4.98344 26.7839 4.93444 26.5858C4.88545 26.3877 4.88571 26.1806 4.93519 25.9826C4.98467 25.7846 5.08187 25.6018 5.21831 25.45C7.49632 22.9278 8.75511 19.6487 8.74998 16.25V15ZM16.2533 29.8333C16.232 30.3386 16.3131 30.8431 16.4918 31.3162C16.6705 31.7894 16.943 32.2215 17.293 32.5866C17.643 32.9517 18.0633 33.2422 18.5285 33.4406C18.9937 33.6391 19.4942 33.7414 20 33.7414C20.5057 33.7414 21.0063 33.6391 21.4715 33.4406C21.9367 33.2422 22.3569 32.9517 22.7069 32.5866C23.057 32.2215 23.3295 31.7894 23.5082 31.3162C23.6868 30.8431 23.768 30.3386 23.7466 29.8333C21.2539 30.0579 18.746 30.0579 16.2533 29.8333Z" fill="white" fill-opacity="0.6"/>
</svg>
