<svg width="16" height="18" viewBox="0 0 16 18" fill="none" xmlns="http://www.w3.org/2000/svg">
<path d="M13.3125 9.24105L6.90169 15.6519C6.19842 16.3551 5.24459 16.7502 4.25002 16.7502C3.25546 16.7502 2.30162 16.3551 1.59836 15.6519C0.895091 14.9486 0.5 13.9948 0.5 13.0002C0.5 12.0056 0.895091 11.0518 1.59836 10.3485L10.715 1.23188C10.9472 0.999767 11.2229 0.815668 11.5263 0.690092C11.8296 0.564516 12.1548 0.499923 12.4831 0.5C12.8114 0.500077 13.1365 0.564824 13.4399 0.690543C13.7432 0.816262 14.0187 1.00049 14.2509 1.23271C14.483 1.46493 14.6671 1.7406 14.7926 2.04397C14.9182 2.34734 14.9828 2.67247 14.9827 3.0008C14.9827 3.32913 14.9179 3.65424 14.7922 3.95755C14.6665 4.26086 14.4822 4.53643 14.25 4.76855L5.12669 13.8919C4.89001 14.1188 4.57366 14.2428 4.24581 14.2386C3.91797 14.2345 3.60488 14.1017 3.37402 13.8688C3.14317 13.636 3.01303 13.3218 3.01166 12.9939C3.01029 12.6661 3.13779 12.3508 3.36669 12.116L9.87502 5.60771M5.13419 13.8835L5.12586 13.8919" stroke="white" stroke-linecap="round" stroke-linejoin="round"/>
</svg>
