<svg width="50" height="50" viewBox="0 0 50 50" fill="none" xmlns="http://www.w3.org/2000/svg">
<rect width="50" height="50" rx="25" fill="white" fill-opacity="0.2"/>
<path d="M34.1875 22.55C33.3375 18.2375 29.55 15 25 15C21.3875 15 18.25 17.05 16.6875 20.05C12.925 20.45 10 23.6375 10 27.5C10 31.6375 13.3625 35 17.5 35H33.75C37.2 35 40 32.2 40 28.75C40 25.45 37.4375 22.775 34.1875 22.55ZM33.75 32.5H17.5C14.7375 32.5 12.5 30.2625 12.5 27.5C12.5 24.9375 14.4125 22.8 16.95 22.5375L18.2875 22.4L18.9125 21.2125C20.1 18.925 22.425 17.5 25 17.5C28.275 17.5 31.1 19.825 31.7375 23.0375L32.1125 24.9125L34.025 25.05C35.975 25.175 37.5 26.8125 37.5 28.75C37.5 30.8125 35.8125 32.5 33.75 32.5ZM20 26.25H23.1875V30H26.8125V26.25H30L25 21.25L20 26.25Z" fill="white"/>
</svg>
