<svg width="20" height="20" viewBox="0 0 20 20" fill="none" xmlns="http://www.w3.org/2000/svg">
<path d="M4.71661 3.10828C4.78771 3.10811 4.85881 3.1079 4.92992 3.10766C5.07842 3.10732 5.22691 3.10741 5.37542 3.1078C5.56472 3.10825 5.75399 3.10746 5.94329 3.10632C6.08998 3.1056 6.23666 3.10561 6.38335 3.10583C6.4531 3.10584 6.52285 3.10561 6.59259 3.10512C7.06623 3.10228 7.45206 3.14111 7.86617 3.39622C7.89629 3.4143 7.9264 3.43237 7.95742 3.451C8.04684 3.51585 8.04684 3.51585 8.13037 3.61606C8.27223 3.73675 8.37968 3.73825 8.55759 3.73508C8.60496 3.7354 8.60496 3.7354 8.65329 3.73573C8.75903 3.73622 8.86472 3.73533 8.97046 3.73444C9.04632 3.73451 9.12217 3.73468 9.19802 3.73492C9.36138 3.73526 9.52472 3.735 9.68808 3.73427C9.94667 3.73313 10.2052 3.73344 10.4638 3.73395C10.9665 3.73476 11.4691 3.73415 11.9717 3.73335C12.6105 3.73237 13.2493 3.73187 13.8881 3.73295C14.1449 3.73334 14.4016 3.73295 14.6583 3.73194C14.8186 3.73147 14.9788 3.73163 15.139 3.73197C15.213 3.73199 15.2869 3.73174 15.3609 3.7312C16.03 3.72656 16.5166 3.84095 17.0214 4.3093C17.4111 4.72097 17.5179 5.18245 17.5157 5.73421C17.5161 5.80688 17.5161 5.80688 17.5166 5.88102C17.5171 6.01273 17.5172 6.14442 17.517 6.27613C17.5169 6.38642 17.5171 6.4967 17.5173 6.60698C17.5179 6.86713 17.5178 7.12727 17.5174 7.38742C17.5169 7.65534 17.5175 7.92324 17.5185 8.19116C17.5194 8.42186 17.5197 8.65256 17.5194 8.88327C17.5193 9.02077 17.5194 9.15827 17.5201 9.29578C17.5208 9.44893 17.5202 9.60206 17.5196 9.7552C17.5199 9.8005 17.5203 9.8458 17.5207 9.89247C17.5185 10.1361 17.5084 10.2844 17.3437 10.469C17.1945 10.6107 17.0749 10.6373 16.875 10.6448C16.6751 10.6373 16.5554 10.6107 16.4062 10.469C16.2282 10.2598 16.2275 10.0877 16.2289 9.82551C16.2282 9.76688 16.2282 9.76688 16.2275 9.70706C16.2261 9.58261 16.2258 9.45818 16.2255 9.33372C16.2249 9.20913 16.224 9.08455 16.2228 8.95996C16.222 8.88258 16.2216 8.80519 16.2217 8.7278C16.2253 8.47336 16.2253 8.47336 16.1328 8.24241C15.9859 8.16859 15.8653 8.15451 15.7021 8.15446C15.6312 8.15414 15.6312 8.15414 15.5589 8.15382C15.5074 8.15398 15.4559 8.15414 15.4028 8.15431C15.3477 8.1542 15.2926 8.15406 15.2376 8.15388C15.1191 8.15356 15.0006 8.15348 14.8822 8.15357C14.6945 8.15368 14.5068 8.15312 14.3191 8.15243C13.7854 8.1506 13.2517 8.14966 12.718 8.14941C12.4231 8.14926 12.1282 8.14855 11.8334 8.14725C11.6472 8.14647 11.461 8.14637 11.2749 8.1468C11.1584 8.1469 11.042 8.14635 10.9255 8.14562C10.8467 8.14532 10.7678 8.14578 10.689 8.14627C10.0798 8.14081 9.63875 7.93107 9.21348 7.50258C9.08938 7.36555 8.99188 7.2131 8.89217 7.05787C8.85802 7.00561 8.85802 7.00561 8.82318 6.95229C8.77469 6.87801 8.72634 6.80365 8.67812 6.7292C8.57757 6.57401 8.4762 6.41937 8.37488 6.26468C8.2994 6.14942 8.22403 6.03409 8.14867 5.91874C7.97585 5.65439 7.80263 5.39032 7.62675 5.12799C7.59625 5.08235 7.56593 5.03659 7.53578 4.99072C7.30854 4.62571 7.30854 4.62571 6.94186 4.43093C6.82426 4.41246 6.71246 4.40874 6.5934 4.40799C6.54528 4.40761 6.49716 4.40724 6.44758 4.40685C6.39534 4.40666 6.3431 4.4065 6.29086 4.40635C6.26432 4.40624 6.23779 4.40613 6.21046 4.40602C6.06999 4.40543 5.92952 4.40507 5.78905 4.4049C5.6448 4.40469 5.50056 4.40375 5.35632 4.40264C5.24465 4.4019 5.13299 4.4017 5.02132 4.40164C4.94254 4.40147 4.86377 4.40074 4.78499 4.40001C4.3208 4.39991 4.3208 4.39991 3.92819 4.61936C3.78204 4.87657 3.77772 5.12144 3.77884 5.41038C3.77869 5.4512 3.77854 5.49202 3.77839 5.53408C3.77799 5.6706 3.77814 5.80713 3.7783 5.94365C3.77813 6.04164 3.77792 6.13964 3.77769 6.23763C3.77722 6.47602 3.77712 6.71441 3.77722 6.9528C3.77729 7.14663 3.77722 7.34046 3.77705 7.5343C3.77703 7.56191 3.777 7.58953 3.77698 7.61798C3.77693 7.67408 3.77689 7.73019 3.77684 7.78629C3.77641 8.31215 3.7765 8.83801 3.77674 9.36388C3.77694 9.84457 3.7765 10.3253 3.77576 10.806C3.775 11.2999 3.77468 11.7939 3.77482 12.2879C3.7749 12.5651 3.7748 12.8423 3.77425 13.1194C3.77373 13.3801 3.77383 13.6408 3.77434 13.9014C3.77443 13.997 3.77433 14.0926 3.77401 14.1882C3.7736 14.3189 3.77391 14.4495 3.77441 14.5801C3.77398 14.6367 3.77398 14.6367 3.77353 14.6944C3.77571 14.968 3.80215 15.2391 3.9941 15.447C4.20558 15.5672 4.41205 15.5959 4.65244 15.596C4.67899 15.5961 4.70554 15.5962 4.73289 15.5963C4.82111 15.5966 4.90931 15.5964 4.99753 15.5961C5.06108 15.5962 5.12462 15.5964 5.18817 15.5966C5.32464 15.5969 5.46111 15.597 5.59759 15.5969C5.81345 15.5968 6.02931 15.5973 6.24517 15.598C6.85886 15.5998 7.47256 15.6008 8.08625 15.601C8.42547 15.6012 8.76468 15.6019 9.1039 15.6032C9.31843 15.604 9.53295 15.6041 9.74748 15.6036C9.88095 15.6035 10.0144 15.6041 10.1479 15.6048C10.2097 15.605 10.2715 15.605 10.3333 15.6046C10.4179 15.6042 10.5023 15.6047 10.5868 15.6055C10.6341 15.6055 10.6813 15.6056 10.73 15.6056C10.9299 15.6359 11.0498 15.7352 11.1865 15.8791C11.2802 16.0809 11.2794 16.2659 11.25 16.4846C11.1597 16.6789 11.0438 16.7707 10.8593 16.8752C10.7244 16.8949 10.7244 16.8949 10.5733 16.8951C10.5314 16.8954 10.5314 16.8954 10.4886 16.8958C10.3954 16.8964 10.3023 16.8959 10.2091 16.8954C10.1421 16.8957 10.0751 16.8959 10.008 16.8963C9.82627 16.897 9.64452 16.8967 9.46275 16.8962C9.27216 16.8958 9.08157 16.8962 8.89098 16.8964C8.57068 16.8967 8.25039 16.8963 7.93009 16.8956C7.56064 16.8947 7.19121 16.895 6.82176 16.8959C6.50401 16.8966 6.18626 16.8967 5.86851 16.8963C5.67899 16.896 5.48948 16.896 5.29996 16.8965C5.12149 16.897 4.94304 16.8967 4.76458 16.8958C4.69939 16.8955 4.6342 16.8956 4.56902 16.896C3.92824 16.899 3.45603 16.7592 2.97848 16.3161C2.60449 15.921 2.48174 15.4697 2.48482 14.9377C2.48461 14.8937 2.4844 14.8497 2.48418 14.8043C2.48363 14.6576 2.4839 14.5109 2.48418 14.3643C2.48396 14.2587 2.48369 14.1532 2.48337 14.0477C2.4827 13.7914 2.48266 13.535 2.48287 13.2787C2.48303 13.0702 2.48297 12.8617 2.48276 12.6532C2.48273 12.6235 2.4827 12.5937 2.48267 12.5631C2.48261 12.5027 2.48255 12.4423 2.48249 12.3819C2.48196 11.816 2.48217 11.2501 2.48262 10.6842C2.483 10.1672 2.4825 9.65026 2.48156 9.13328C2.48061 8.60163 2.48024 8.06998 2.4805 7.53833C2.48063 7.24017 2.48055 6.94202 2.47986 6.64386C2.47928 6.39004 2.47926 6.13623 2.47994 5.88241C2.48027 5.75307 2.48028 5.62376 2.47976 5.49442C2.47924 5.35381 2.4797 5.21324 2.48039 5.07264C2.48001 5.03232 2.47963 4.992 2.47925 4.95046C2.48465 4.41156 2.69726 3.99368 3.05905 3.60374C3.54623 3.14265 4.08166 3.10688 4.71661 3.10828ZM9.14059 5.00022C9.1895 5.12551 9.23924 5.23606 9.31413 5.3479C9.33304 5.37632 9.35196 5.40474 9.37145 5.43402C9.40197 5.47919 9.40196 5.47919 9.4331 5.52528C9.46475 5.57243 9.46475 5.57243 9.49705 5.62053C9.54164 5.68681 9.58633 5.75303 9.63111 5.81919C9.69937 5.92018 9.76709 6.02152 9.83479 6.12289C9.87827 6.18738 9.92178 6.25185 9.96533 6.31629C9.98543 6.34649 10.0055 6.37668 10.0263 6.40779C10.1751 6.62616 10.308 6.78777 10.5733 6.85944C10.7823 6.8958 10.9964 6.88525 11.2078 6.88409C11.2629 6.88407 11.318 6.88408 11.3731 6.88413C11.5219 6.88415 11.6708 6.88369 11.8197 6.88314C11.9755 6.88265 12.1314 6.88261 12.2872 6.88252C12.582 6.88227 12.8768 6.88163 13.1716 6.88085C13.5073 6.87997 13.8431 6.87955 14.1788 6.87915C14.8692 6.87834 15.5596 6.87696 16.25 6.87522C16.2529 6.70364 16.255 6.53207 16.2564 6.36048C16.257 6.30225 16.2578 6.24402 16.2588 6.1858C16.2832 5.67035 16.2832 5.67035 16.0829 5.21241C15.8741 5.01836 15.6197 4.99041 15.3459 4.99083C15.3192 4.99076 15.2925 4.99069 15.265 4.99062C15.1762 4.9905 15.0874 4.99092 14.9987 4.99135C14.9348 4.99137 14.8708 4.99136 14.8069 4.99132C14.6339 4.9913 14.4609 4.99175 14.2879 4.9923C14.1068 4.99279 13.9258 4.99283 13.7448 4.99293C13.4023 4.99317 13.0598 4.99381 12.7172 4.9946C12.3272 4.99547 11.9371 4.9959 11.5471 4.99629C10.7449 4.99711 9.94275 4.99848 9.14059 5.00022Z" fill="white"/>
<path d="M15.2344 11.8752C15.4283 11.9652 15.5231 12.0799 15.625 12.2658C15.6452 12.3822 15.6433 12.4955 15.6403 12.6134C15.64 12.646 15.6398 12.6786 15.6396 12.7122C15.6387 12.8157 15.6368 12.9192 15.6348 13.0226C15.634 13.0931 15.6333 13.1635 15.6326 13.234C15.6309 13.4061 15.6282 13.5781 15.625 13.7502C15.6687 13.7494 15.7125 13.7485 15.7575 13.7477C15.9205 13.7449 16.0834 13.7431 16.2463 13.7416C16.3167 13.7408 16.3871 13.7397 16.4575 13.7384C16.5589 13.7365 16.6603 13.7356 16.7618 13.7349C16.8087 13.7337 16.8087 13.7337 16.8565 13.7325C17.064 13.7324 17.1783 13.7704 17.3438 13.9064C17.4855 14.0556 17.5121 14.1753 17.5195 14.3752C17.5121 14.5751 17.4855 14.6947 17.3438 14.8439C17.1462 15.0064 17.0064 15.0217 16.7618 15.0154C16.7292 15.0152 16.6965 15.015 16.6629 15.0148C16.5595 15.0139 16.456 15.0119 16.3525 15.0099C16.2821 15.0092 16.2117 15.0084 16.1412 15.0078C15.9691 15.0061 15.7971 15.0034 15.625 15.0002C15.6262 15.0658 15.6262 15.0658 15.6275 15.1327C15.6303 15.2956 15.6321 15.4586 15.6336 15.6215C15.6344 15.6919 15.6354 15.7623 15.6368 15.8327C15.6387 15.9341 15.6396 16.0355 15.6403 16.137C15.6411 16.1682 15.6419 16.1995 15.6427 16.2317C15.6428 16.4392 15.6048 16.5535 15.4688 16.7189C15.3196 16.8607 15.1999 16.8873 15 16.8947C14.8001 16.8873 14.6804 16.8607 14.5312 16.7189C14.3688 16.5214 14.3534 16.3815 14.3597 16.137C14.36 16.1043 14.3602 16.0717 14.3604 16.0381C14.3613 15.9346 14.3632 15.8312 14.3652 15.7277C14.366 15.6573 14.3667 15.5868 14.3674 15.5164C14.3691 15.3443 14.3718 15.1722 14.375 15.0002C14.3094 15.0014 14.3094 15.0014 14.2425 15.0027C14.0795 15.0055 13.9166 15.0073 13.7537 15.0088C13.6833 15.0095 13.6129 15.0106 13.5425 15.012C13.4411 15.0139 13.3397 15.0148 13.2382 15.0154C13.1913 15.0166 13.1913 15.0166 13.1435 15.0179C12.936 15.018 12.8217 14.98 12.6562 14.8439C12.5145 14.6947 12.4879 14.5751 12.4805 14.3752C12.4879 14.1753 12.5145 14.0556 12.6562 13.9064C12.8538 13.744 12.9936 13.7286 13.2382 13.7349C13.2708 13.7351 13.3035 13.7354 13.3371 13.7356C13.4405 13.7365 13.544 13.7384 13.6475 13.7404C13.7179 13.7412 13.7883 13.7419 13.8588 13.7426C14.0309 13.7443 14.2029 13.747 14.375 13.7502C14.3742 13.7064 14.3734 13.6627 14.3725 13.6176C14.3697 13.4547 14.3679 13.2918 14.3664 13.1289C14.3656 13.0585 14.3646 12.9881 14.3632 12.9177C14.3613 12.8162 14.3604 12.7148 14.3597 12.6134C14.3589 12.5821 14.3581 12.5509 14.3573 12.5187C14.3572 12.3112 14.3952 12.1969 14.5312 12.0314C14.7372 11.8358 14.9652 11.8389 15.2344 11.8752Z" fill="white"/>
</svg>
