<svg width="30" height="30" viewBox="0 0 30 30" fill="none" xmlns="http://www.w3.org/2000/svg">
<path d="M30 15C30 23.2843 23.2843 30 15 30C6.71573 30 0 23.2843 0 15C0 6.71573 6.71573 0 15 0C23.2843 0 30 6.71573 30 15ZM2.25 15C2.25 22.0416 7.95837 27.75 15 27.75C22.0416 27.75 27.75 22.0416 27.75 15C27.75 7.95837 22.0416 2.25 15 2.25C7.95837 2.25 2.25 7.95837 2.25 15Z" fill="white" fill-opacity="0.6"/>
<circle cx="15" cy="15" r="12" fill="#00C24D"/>
<path fill-rule="evenodd" clip-rule="evenodd" d="M20.0098 11.2209C20.3065 11.5164 20.3074 11.9964 20.012 12.293L13.6246 18.7063C13.3292 19.003 12.8492 19.0039 12.5526 18.7085L10.2231 16.3888C9.92649 16.0933 9.92549 15.6134 10.2209 15.3167C10.5163 15.0201 10.9963 15.0191 11.293 15.3145L13.0853 17.0994L18.9378 11.2231C19.2332 10.9265 19.7132 10.9255 20.0098 11.2209Z" fill="white"/>
</svg>
