<svg width="20" height="20" viewBox="0 0 20 20" fill="none" xmlns="http://www.w3.org/2000/svg">
<path d="M4.68763 4.0042C4.74163 4.00394 4.74163 4.00394 4.79671 4.00367C4.91493 4.00318 5.03314 4.00322 5.15136 4.0033C5.2341 4.00316 5.31683 4.00301 5.39956 4.00284C5.57271 4.00258 5.74586 4.00259 5.91901 4.00278C6.14009 4.00298 6.36116 4.00239 6.58224 4.00158C6.75305 4.00107 6.92386 4.00104 7.09467 4.00115C7.17614 4.00113 7.25761 4.00095 7.33908 4.0006C7.45337 4.00016 7.56765 4.0004 7.68194 4.00081C7.71508 4.00054 7.74822 4.00027 7.78237 4C8.40311 4.00478 8.80036 4.27757 9.22823 4.70985C9.27175 4.75506 9.31515 4.80038 9.35846 4.8458C9.39189 4.88066 9.39189 4.88066 9.42601 4.91623C9.46932 4.96162 9.5123 5.00735 9.55488 5.05346C9.76135 5.27062 9.97644 5.39589 10.2772 5.41046C10.3284 5.41059 10.3284 5.41059 10.3806 5.41073C10.42 5.41092 10.4593 5.41111 10.4999 5.41131C10.5428 5.41134 10.5857 5.41138 10.6298 5.41142C10.6757 5.41158 10.7216 5.41176 10.7674 5.41195C10.8661 5.41234 10.9647 5.41264 11.0633 5.41286C11.2195 5.41323 11.3757 5.41394 11.5319 5.41471C11.976 5.41686 12.4201 5.41874 12.8642 5.4199C13.1096 5.42054 13.355 5.42154 13.6004 5.42296C13.7301 5.42369 13.8598 5.42423 13.9895 5.42431C14.1117 5.42438 14.2338 5.42494 14.3559 5.42585C14.4216 5.42622 14.4873 5.42608 14.553 5.42592C14.9875 5.43013 15.3421 5.54294 15.6708 5.84098C15.7078 5.88405 15.7078 5.88405 15.7455 5.92799C15.7743 5.96029 15.8032 5.99259 15.8329 6.02587C16.0543 6.30281 16.1321 6.61382 16.1275 6.96436C16.1273 7.00672 16.1273 7.00672 16.1272 7.04993C16.1268 7.13928 16.1259 7.22862 16.1251 7.31797C16.1247 7.3789 16.1244 7.43983 16.1241 7.50076C16.1234 7.64939 16.1222 7.798 16.1208 7.94662C16.1403 7.94599 16.1597 7.94535 16.1798 7.9447C16.7205 7.92786 17.1363 7.97426 17.5539 8.36427C17.8689 8.7206 18.0218 9.13763 17.9975 9.61722C17.9815 9.70402 17.9624 9.79027 17.9405 9.87572C17.9344 9.89959 17.9283 9.92347 17.922 9.94807C17.8499 10.225 17.766 10.4983 17.6815 10.7715C17.6641 10.828 17.6467 10.8846 17.6294 10.9411C17.5833 11.0911 17.5371 11.241 17.4908 11.3909C17.4427 11.5468 17.3948 11.7026 17.3468 11.8585C17.289 12.0465 17.2311 12.2345 17.1731 12.4225C17.0647 12.7739 16.9567 13.1254 16.8494 13.4772C16.8035 13.6273 16.7576 13.7773 16.7116 13.9274C16.6877 14.0056 16.6638 14.0838 16.64 14.162C16.2405 15.4744 16.2405 15.4744 15.7003 15.7983C15.4544 15.9298 15.2171 15.9906 14.9388 15.9909C14.9011 15.9911 14.8634 15.9912 14.8246 15.9913C14.7835 15.9913 14.7424 15.9913 14.7001 15.9912C14.6342 15.9914 14.6342 15.9914 14.567 15.9916C14.4453 15.9918 14.3236 15.9919 14.2019 15.9919C14.0706 15.992 13.9393 15.9923 13.808 15.9925C13.5209 15.993 13.2338 15.9932 12.9467 15.9933C12.7674 15.9934 12.588 15.9936 12.4087 15.9937C11.9118 15.9942 11.415 15.9945 10.9181 15.9946C10.8863 15.9946 10.8545 15.9946 10.8218 15.9947C10.774 15.9947 10.774 15.9947 10.7252 15.9947C10.6607 15.9947 10.5961 15.9947 10.5316 15.9947C10.4995 15.9947 10.4675 15.9947 10.4345 15.9947C9.91586 15.9949 9.39718 15.9955 8.87851 15.9963C8.34563 15.9971 7.81275 15.9976 7.27987 15.9976C6.98082 15.9976 6.68178 15.9978 6.38274 15.9985C6.12805 15.999 5.87337 15.9992 5.61869 15.9989C5.48885 15.9988 5.35902 15.9988 5.22919 15.9993C5.08814 15.9998 4.9471 15.9995 4.80604 15.9992C4.76542 15.9994 4.7248 15.9997 4.68295 16C4.17564 15.997 3.76942 15.8609 3.39597 15.5073C3.09793 15.1798 3.00238 14.8067 3.00487 14.3711C3.00459 14.3127 3.00459 14.3127 3.00431 14.2531C3.00382 14.1232 3.00406 13.9933 3.00431 13.8633C3.00411 13.77 3.00388 13.6766 3.0036 13.5832C3.00301 13.3562 3.00298 13.1292 3.00316 12.9023C3.0033 12.7177 3.00325 12.5331 3.00307 12.3485C3.00304 12.3222 3.00302 12.2959 3.00299 12.2688C3.00294 12.2153 3.00289 12.1619 3.00283 12.1084C3.00237 11.6075 3.00255 11.1066 3.00294 10.6057C3.00328 10.148 3.00284 9.69024 3.00202 9.23252C3.00119 8.76194 3.00086 8.29136 3.00109 7.82077C3.00121 7.55681 3.00113 7.29286 3.00054 7.0289C3.00003 6.80418 3.00001 6.57948 3.00061 6.35477C3.0009 6.24024 3.0009 6.12573 3.00045 6.0112C3 5.88675 3.00039 5.76233 3.00099 5.63787C3.0005 5.58421 3.0005 5.58421 3 5.52946C3.00408 5.1183 3.15247 4.75976 3.42875 4.46064C3.79826 4.10502 4.19161 4.00292 4.68763 4.0042ZM3.75038 4.98434C3.59059 5.22691 3.55361 5.4805 3.55583 5.76667C3.55578 5.79462 3.55572 5.82257 3.55566 5.85137C3.55555 5.9443 3.55592 6.03722 3.55629 6.13015C3.55631 6.19706 3.5563 6.26396 3.55626 6.33087C3.55624 6.51198 3.55664 6.6931 3.55712 6.87422C3.55755 7.06369 3.55759 7.25316 3.55767 7.44263C3.55788 7.80119 3.55844 8.15975 3.55913 8.51831C3.55989 8.92661 3.56026 9.33492 3.56061 9.74322C3.56132 10.5829 3.56252 11.4226 3.56404 12.2623C3.6374 12.1501 3.66838 12.0547 3.70774 11.9261C3.71497 11.9026 3.72219 11.8792 3.72964 11.855C3.75359 11.7772 3.7773 11.6992 3.80103 11.6213C3.81785 11.5665 3.8347 11.5117 3.85156 11.4569C3.89613 11.3118 3.94052 11.1668 3.98486 11.0217C4.11299 10.6025 4.24166 10.1835 4.3714 9.76483C4.40046 9.67105 4.42937 9.57722 4.4581 9.48334C4.49362 9.36769 4.52974 9.25227 4.5661 9.13689C4.57584 9.10474 4.58559 9.07258 4.59563 9.03945C4.70785 8.68888 4.90362 8.40214 5.20188 8.19025C5.43273 8.07089 5.65777 7.97741 5.91809 7.9766C5.9526 7.97641 5.9871 7.97622 6.02265 7.97602C6.06049 7.97599 6.09833 7.97596 6.13731 7.97592C6.17756 7.97575 6.2178 7.97558 6.25927 7.9754C6.371 7.97496 6.48274 7.97467 6.59448 7.97444C6.71496 7.97417 6.83544 7.97369 6.95592 7.97324C7.16468 7.97248 7.37343 7.97185 7.58218 7.9713C7.88401 7.97051 8.18583 7.96953 8.48766 7.96851C8.97733 7.96685 9.46701 7.96534 9.95669 7.96393C10.4324 7.96256 10.9081 7.96112 11.3838 7.95958C11.4278 7.95944 11.4278 7.95944 11.4726 7.95929C11.6197 7.95882 11.7668 7.95834 11.9139 7.95786C13.1342 7.9539 14.3545 7.95018 15.5749 7.94662C15.5769 7.79146 15.5781 7.63629 15.5791 7.48112C15.5797 7.43755 15.5803 7.39399 15.5809 7.34911C15.5829 6.95185 15.565 6.61995 15.3019 6.31083C15.1005 6.11974 14.9025 6.02388 14.6236 6.02341C14.5842 6.02317 14.5449 6.02293 14.5044 6.02269C14.4618 6.02278 14.4191 6.02287 14.3752 6.02296C14.3294 6.02281 14.2837 6.02262 14.2379 6.02241C14.1396 6.02201 14.0413 6.02182 13.943 6.02179C13.7872 6.02172 13.6314 6.02109 13.4756 6.02037C13.0886 6.01866 12.7015 6.01758 12.3144 6.01684C12.0137 6.01626 11.7131 6.01547 11.4124 6.01395C11.2579 6.0132 11.1034 6.01291 10.9489 6.01299C10.8523 6.01293 10.7556 6.01244 10.659 6.01184C10.5936 6.01155 10.5283 6.01178 10.4629 6.01202C9.80966 6.00652 9.40923 5.76015 8.95526 5.30151C8.91175 5.2563 8.86834 5.21098 8.82504 5.16556C8.80275 5.14232 8.78046 5.11908 8.75749 5.09513C8.71418 5.04974 8.6712 5.00401 8.62861 4.9579C8.44439 4.76413 8.2324 4.61787 7.96102 4.60086C7.93462 4.60076 7.90822 4.60065 7.88102 4.60055C7.85056 4.60035 7.8201 4.60015 7.78871 4.59994C7.75554 4.5999 7.72238 4.59987 7.6882 4.59983C7.65307 4.59965 7.61793 4.59948 7.58173 4.5993C7.46541 4.59879 7.3491 4.59856 7.23279 4.59836C7.15186 4.59816 7.07093 4.59796 6.99001 4.59776C6.82023 4.5974 6.65045 4.59719 6.48067 4.59707C6.26351 4.59688 6.04636 4.59605 5.82921 4.59505C5.66198 4.5944 5.49474 4.59422 5.3275 4.59417C5.24747 4.59407 5.16744 4.59379 5.08741 4.59333C4.97521 4.59273 4.86302 4.5928 4.75081 4.59303C4.71799 4.59271 4.68517 4.59239 4.65135 4.59206C4.29638 4.59428 3.9809 4.69609 3.75038 4.98434ZM5.30425 8.85153C5.13174 9.10542 5.05135 9.399 4.96303 9.69077C4.94688 9.7432 4.93071 9.79563 4.91451 9.84804C4.87105 9.98897 4.82801 10.13 4.78507 10.2711C4.74012 10.4186 4.69483 10.566 4.64959 10.7135C4.57487 10.9572 4.50042 11.2009 4.42613 11.4448C4.34468 11.7121 4.26274 11.9792 4.18048 12.2462C4.11298 12.4654 4.04572 12.6846 3.97868 12.9038C3.93934 13.0325 3.89991 13.1611 3.86025 13.2897C3.82315 13.41 3.78637 13.5304 3.74984 13.6509C3.73023 13.7153 3.71031 13.7796 3.69037 13.8438C3.57129 14.2389 3.51178 14.5615 3.70053 14.9413C3.83788 15.1626 4.06046 15.3112 4.30622 15.3801C4.4742 15.412 4.64587 15.4044 4.81614 15.404C4.85986 15.4042 4.90357 15.4043 4.94861 15.4045C5.06957 15.4049 5.19053 15.4049 5.31149 15.4048C5.4421 15.4048 5.5727 15.4052 5.70331 15.4055C5.95904 15.4061 6.21478 15.4063 6.47052 15.4063C6.67843 15.4064 6.88635 15.4065 7.09426 15.4067C7.68402 15.4073 8.27378 15.4077 8.86354 15.4076C8.9112 15.4076 8.9112 15.4076 8.95984 15.4076C8.99165 15.4076 9.02347 15.4076 9.05625 15.4076C9.57188 15.4076 10.0875 15.4082 10.6031 15.4092C11.1329 15.4102 11.6626 15.4107 12.1923 15.4106C12.4896 15.4106 12.7869 15.4108 13.0842 15.4115C13.3373 15.4122 13.5904 15.4123 13.8435 15.4119C13.9726 15.4116 14.1016 15.4116 14.2307 15.4122C14.3708 15.4129 14.5109 15.4124 14.651 15.4119C14.7118 15.4124 14.7118 15.4124 14.7738 15.413C15.0745 15.4104 15.3572 15.3538 15.5877 15.1424C15.6083 15.1242 15.629 15.1061 15.6503 15.0874C15.8403 14.8521 15.9124 14.5461 15.999 14.2602C16.0136 14.2127 16.0282 14.1652 16.0428 14.1177C16.0822 13.9894 16.1213 13.8609 16.1604 13.7325C16.2014 13.5976 16.2428 13.4629 16.2841 13.328C16.3624 13.0722 16.4404 12.8163 16.5183 12.5603C16.5808 12.3551 16.6434 12.15 16.706 11.9449C16.8014 11.6328 16.8966 11.3205 16.9917 11.0083C17.0164 10.9269 17.0412 10.8456 17.066 10.7642C17.1051 10.6361 17.1441 10.5079 17.183 10.3797C17.1972 10.3328 17.2115 10.2858 17.2258 10.2389C17.425 9.64852 17.425 9.64852 17.3129 9.056C17.1832 8.8115 17.0086 8.65602 16.7518 8.56063C16.5788 8.51521 16.4016 8.5239 16.2241 8.5248C16.1797 8.52461 16.1354 8.52442 16.0897 8.52423C15.9672 8.52373 15.8447 8.52388 15.7222 8.52413C15.5899 8.5243 15.4576 8.52386 15.3252 8.52351C15.0662 8.52291 14.8072 8.52288 14.5482 8.52306C14.3376 8.5232 14.127 8.52315 13.9165 8.52296C13.8715 8.52293 13.8715 8.52293 13.8256 8.52289C13.7647 8.52283 13.7037 8.52278 13.6428 8.52273C13.0717 8.52225 12.5006 8.52244 11.9295 8.52284C11.4072 8.52318 10.885 8.52273 10.3627 8.5219C9.82614 8.52105 9.2896 8.52072 8.75305 8.52095C8.45193 8.52107 8.15082 8.52099 7.8497 8.52038C7.59338 8.51987 7.33706 8.51985 7.08074 8.52045C6.95001 8.52075 6.8193 8.52082 6.68858 8.52029C6.54674 8.51972 6.40493 8.52023 6.2631 8.52085C6.22196 8.52051 6.18082 8.52018 6.13843 8.51983C5.80319 8.52283 5.54372 8.60172 5.30425 8.85153Z" fill="white"/>
</svg>
