<svg width="24" height="24" viewBox="0 0 24 24" fill="none" xmlns="http://www.w3.org/2000/svg">
<g clip-path="url(#clip0_959_4205)">
<path fill-rule="evenodd" clip-rule="evenodd" d="M5.17217 12.0001C5.17217 11.2206 5.30154 10.4733 5.53273 9.77239L1.48835 6.68408C0.700104 8.28439 0.256104 10.0878 0.256104 12.0001C0.256104 13.9109 0.699728 15.713 1.48667 17.3123L5.52879 14.218C5.29985 13.5203 5.17217 12.7758 5.17217 12.0001Z" fill="#FBBC05"/>
<path fill-rule="evenodd" clip-rule="evenodd" d="M12.2732 4.90912C13.9665 4.90912 15.496 5.50912 16.6977 6.49088L20.1934 3C18.0632 1.14544 15.3321 0 12.2732 0C7.52422 0 3.44272 2.71575 1.4884 6.684L5.53259 9.77231C6.46447 6.94369 9.12078 4.90912 12.2732 4.90912Z" fill="#EA4335"/>
<path fill-rule="evenodd" clip-rule="evenodd" d="M12.2732 19.091C9.12097 19.091 6.46465 17.0564 5.53278 14.2278L1.4884 17.3155C3.44272 21.2843 7.52422 24.0001 12.2732 24.0001C15.2042 24.0001 18.0027 22.9593 20.1028 21.0093L16.264 18.0415C15.1808 18.7238 13.8167 19.091 12.2732 19.091Z" fill="#34A853"/>
<path fill-rule="evenodd" clip-rule="evenodd" d="M23.7439 12.0001C23.7439 11.291 23.6346 10.5273 23.4707 9.81836H12.2732V14.4547H18.7187C18.3964 16.0355 17.5193 17.2507 16.2639 18.0415L20.1028 21.0093C22.3089 18.9618 23.7439 15.9115 23.7439 12.0001Z" fill="#4285F4"/>
</g>
<defs>
<clipPath id="clip0_959_4205">
<rect width="24" height="24" fill="white"/>
</clipPath>
</defs>
</svg>
