<svg width="20" height="20" viewBox="0 0 20 20" fill="none" xmlns="http://www.w3.org/2000/svg">
<path d="M10.5 4C6.9094 4 4 6.9094 4 10.5C4 14.0906 6.9094 17 10.5 17C14.0906 17 17 14.0906 17 10.5C17 6.9094 14.0906 4 10.5 4ZM9.6602 4.741C9.0284 5.5262 8.537 6.4024 8.199 7.3332C7.523 7.1512 6.8626 6.886 6.236 6.5376C7.12 5.5886 8.316 4.9334 9.6602 4.741ZM5.9448 6.8782C6.6182 7.2604 7.328 7.5516 8.0586 7.7492C7.8064 8.5604 7.666 9.4106 7.6452 10.279H4.6838C4.7306 8.9972 5.196 7.8194 5.9448 6.8782ZM4.6838 10.7184H7.6452C7.666 11.5894 7.8064 12.437 8.0586 13.2482C7.328 13.4484 6.6182 13.737 5.9448 14.1192C5.196 13.1806 4.7306 12.0028 4.6838 10.7184ZM6.236 14.4598C6.8626 14.114 7.5204 13.8488 8.199 13.6642C8.5396 14.5976 9.031 15.4712 9.6602 16.2564C8.316 16.064 7.12 15.4114 6.236 14.4598ZM10.2816 16.3136C9.5588 15.4946 9.0024 14.5638 8.628 13.5602C9.1714 13.4432 9.7252 13.3756 10.2816 13.3626V16.3136ZM10.2816 12.9258C9.6784 12.9388 9.0778 13.0142 8.485 13.1442C8.2406 12.3668 8.1054 11.553 8.0846 10.7184H10.2816V12.9258ZM10.2816 10.2816H8.0846C8.1054 9.447 8.2406 8.6332 8.485 7.8558C9.0752 7.9884 9.6784 8.0612 10.2816 8.0742V10.2816ZM10.2816 7.6348C9.7278 7.6218 9.174 7.5542 8.628 7.4372C8.9998 6.4336 9.5562 5.5028 10.2816 4.6838V7.6348ZM16.3162 10.2816H13.3522C13.3314 9.4262 13.1936 8.576 12.9388 7.7518C13.672 7.5516 14.3844 7.2604 15.0578 6.8782C15.804 7.8194 16.2694 8.9972 16.3162 10.2816ZM14.764 6.5402C14.1374 6.8886 13.4744 7.1538 12.7958 7.3358C12.4604 6.4154 11.9742 5.5366 11.3372 4.741C12.684 4.9334 13.88 5.5886 14.764 6.5402ZM10.721 4.6864C11.4542 5.5158 12.0028 6.4518 12.3694 7.4398C11.826 7.5568 11.2748 7.6218 10.721 7.6374V4.6864ZM10.721 8.0742C11.3216 8.0612 11.9222 7.9884 12.5124 7.8558C12.7594 8.6436 12.8946 9.46 12.9128 10.279H10.721V8.0742ZM10.721 10.7184H12.9128C12.892 11.5374 12.7594 12.3538 12.5124 13.1416C11.9222 13.0116 11.3242 12.9388 10.721 12.9232V10.7184ZM10.721 13.3652C11.2748 13.3782 11.826 13.4432 12.3694 13.5628C12.0028 14.5508 11.4542 15.4868 10.721 16.3162V13.3652ZM11.3398 16.259C11.9768 15.4634 12.463 14.5846 12.7984 13.6642C13.477 13.8462 14.1374 14.1114 14.7666 14.4598C13.88 15.4114 12.684 16.0666 11.3398 16.259ZM15.0552 14.1218C14.3818 13.7396 13.6694 13.4484 12.9362 13.2482C13.191 12.4266 13.3288 11.5738 13.3496 10.7184H16.3136C16.2694 12.0028 15.804 13.1806 15.0552 14.1218Z" fill="white"/>
</svg>
