<svg width="34" height="34" viewBox="0 0 34 34" fill="none" xmlns="http://www.w3.org/2000/svg">
<rect width="34" height="34" rx="17" transform="matrix(4.37114e-08 1 1 -4.37114e-08 0 1.48619e-06)" fill="black" fill-opacity="0.2"/>
<path fill-rule="evenodd" clip-rule="evenodd" d="M9.17998 16.565C9.06473 16.6804 9 16.8368 9 16.9999C9 17.163 9.06473 17.3194 9.17998 17.4348L15.334 23.5888C15.3904 23.6493 15.4583 23.6978 15.5338 23.7314C15.6093 23.7651 15.6908 23.7832 15.7734 23.7846C15.856 23.7861 15.9381 23.7709 16.0148 23.7399C16.0914 23.709 16.161 23.6629 16.2194 23.6045C16.2779 23.546 16.3239 23.4764 16.3549 23.3998C16.3858 23.3232 16.401 23.2411 16.3996 23.1585C16.3981 23.0758 16.38 22.9943 16.3464 22.9188C16.3128 22.8433 16.2643 22.7754 16.2038 22.7191L11.1 17.6153L24.3846 17.6153C24.5478 17.6153 24.7043 17.5505 24.8198 17.4351C24.9352 17.3196 25 17.1631 25 16.9999C25 16.8367 24.9352 16.6802 24.8198 16.5647C24.7043 16.4493 24.5478 16.3845 24.3846 16.3845L11.1 16.3845L16.2038 11.2807C16.2643 11.2244 16.3128 11.1565 16.3464 11.081C16.38 11.0055 16.3981 10.924 16.3996 10.8414C16.401 10.7587 16.3858 10.6766 16.3549 10.6C16.3239 10.5234 16.2779 10.4538 16.2194 10.3953C16.161 10.3369 16.0914 10.2908 16.0148 10.2599C15.9381 10.2289 15.856 10.2137 15.7734 10.2152C15.6908 10.2166 15.6093 10.2347 15.5338 10.2684C15.4583 10.302 15.3904 10.3505 15.334 10.411L9.17998 16.565Z" fill="white"/>
</svg>
