<svg width="34" height="34" viewBox="0 0 34 34" fill="none" xmlns="http://www.w3.org/2000/svg">
<rect width="34" height="34" rx="17" fill="white" fill-opacity="0.2"/>
<path fill-rule="evenodd" clip-rule="evenodd" d="M8 11.75C8 11.5511 8.07902 11.3603 8.21967 11.2197C8.36032 11.079 8.55109 11 8.75 11H25.25C25.4489 11 25.6397 11.079 25.7803 11.2197C25.921 11.3603 26 11.5511 26 11.75C26 11.9489 25.921 12.1397 25.7803 12.2803C25.6397 12.421 25.4489 12.5 25.25 12.5H8.75C8.55109 12.5 8.36032 12.421 8.21967 12.2803C8.07902 12.1397 8 11.9489 8 11.75ZM8 17C8 16.8011 8.07902 16.6103 8.21967 16.4697C8.36032 16.329 8.55109 16.25 8.75 16.25H25.25C25.4489 16.25 25.6397 16.329 25.7803 16.4697C25.921 16.6103 26 16.8011 26 17C26 17.1989 25.921 17.3897 25.7803 17.5303C25.6397 17.671 25.4489 17.75 25.25 17.75H8.75C8.55109 17.75 8.36032 17.671 8.21967 17.5303C8.07902 17.3897 8 17.1989 8 17ZM8 22.25C8 22.0511 8.07902 21.8603 8.21967 21.7197C8.36032 21.579 8.55109 21.5 8.75 21.5H17C17.1989 21.5 17.3897 21.579 17.5303 21.7197C17.671 21.8603 17.75 22.0511 17.75 22.25C17.75 22.4489 17.671 22.6397 17.5303 22.7803C17.3897 22.921 17.1989 23 17 23H8.75C8.55109 23 8.36032 22.921 8.21967 22.7803C8.07902 22.6397 8 22.4489 8 22.25Z" fill="white"/>
</svg>
