<svg width="18" height="18" viewBox="0 0 18 18" fill="none" xmlns="http://www.w3.org/2000/svg">
<path d="M5.0625 9C5.0625 9.14918 5.00324 9.29226 4.89775 9.39775C4.79226 9.50324 4.64919 9.5625 4.5 9.5625C4.35082 9.5625 4.20774 9.50324 4.10226 9.39775C3.99677 9.29226 3.9375 9.14918 3.9375 9C3.9375 8.85082 3.99677 8.70774 4.10226 8.60225C4.20774 8.49676 4.35082 8.4375 4.5 8.4375C4.64919 8.4375 4.79226 8.49676 4.89775 8.60225C5.00324 8.70774 5.0625 8.85082 5.0625 9ZM9.5625 9C9.5625 9.14919 9.50324 9.29226 9.39775 9.39775C9.29226 9.50324 9.14919 9.5625 9 9.5625C8.85082 9.5625 8.70774 9.50324 8.60226 9.39775C8.49677 9.29226 8.4375 9.14919 8.4375 9C8.4375 8.85082 8.49677 8.70774 8.60226 8.60225C8.70775 8.49676 8.85082 8.4375 9 8.4375C9.14919 8.4375 9.29226 8.49676 9.39775 8.60225C9.50324 8.70774 9.5625 8.85082 9.5625 9ZM14.0625 9C14.0625 9.14919 14.0032 9.29226 13.8978 9.39775C13.7923 9.50324 13.6492 9.5625 13.5 9.5625C13.3508 9.5625 13.2077 9.50324 13.1023 9.39775C12.9968 9.29226 12.9375 9.14919 12.9375 9C12.9375 8.85082 12.9968 8.70774 13.1023 8.60225C13.2077 8.49677 13.3508 8.4375 13.5 8.4375C13.6492 8.4375 13.7923 8.49677 13.8978 8.60225C14.0032 8.70774 14.0625 8.85082 14.0625 9Z" stroke="#E5E5E5" stroke-linecap="round" stroke-linejoin="round"/>
</svg>
