<svg width="20" height="20" viewBox="0 0 20 20" fill="none" xmlns="http://www.w3.org/2000/svg">
<path d="M5.625 17H4.84375L5.3125 16.3437C5.65625 15.8437 5.90625 15.25 6.03125 14.4687C3.8125 13.4687 2.625 11.5938 2.625 9.125C2.625 5.34375 5.46876 3 10.0625 3C14.6563 3 17.5 5.34375 17.5 9.125C17.5 12.9375 14.7188 15.25 10.0625 15.25C9.96876 15.25 9.84376 15.25 9.75001 15.25C9.00001 16.0625 7.75 17 5.625 17ZM10 3.8125C5.84375 3.8125 3.375 5.78125 3.375 9.125C3.375 11.9688 5.125 13.25 6.5625 13.8437L6.84375 13.9688L6.8125 14.2813C6.71875 15 6.56251 15.625 6.31251 16.1563C7.81251 15.9688 8.6875 15.2188 9.15625 14.5938L9.28126 14.4375H9.5625C9.6875 14.4375 9.84375 14.4375 9.96875 14.4375C15.9375 14.4375 16.5938 10.7188 16.5938 9.125C16.625 5.8125 14.1563 3.8125 10 3.8125Z" fill="white"/>
</svg>
