<svg width="40" height="40" viewBox="0 0 40 40" fill="none" xmlns="http://www.w3.org/2000/svg">
<path d="M29.5055 35.1562H11.625C10.5871 35.155 9.59211 34.7422 8.85821 34.0082C8.1243 33.2743 7.71145 32.2793 7.71021 31.2414V7.66484C7.71145 6.62694 8.1243 5.63191 8.85821 4.898C9.59211 4.16409 10.5871 3.75124 11.625 3.75H23.3516C23.6622 3.75007 23.9601 3.87342 24.1797 4.09297L33.0766 12.9898C33.1856 13.0987 33.272 13.2279 33.331 13.3701C33.39 13.5123 33.4203 13.6648 33.4204 13.8188V31.2406C33.4193 32.2787 33.0066 33.2739 32.2726 34.008C31.5387 34.742 30.5436 35.155 29.5055 35.1562ZM11.625 6.09375C11.2085 6.09416 10.8091 6.25982 10.5146 6.55437C10.22 6.84892 10.0544 7.24829 10.054 7.66484V31.2414C10.0544 31.658 10.22 32.0573 10.5146 32.3519C10.8091 32.6464 11.2085 32.8121 11.625 32.8125H29.5055C29.9221 32.8121 30.3214 32.6464 30.616 32.3519C30.9105 32.0573 31.0762 31.658 31.0766 31.2414V14.3039L22.8657 6.09375H11.625Z" fill="#E0E0E0"/>
<path d="M32.2485 14.9906H26.0938C25.0559 14.9894 24.0609 14.5765 23.327 13.8426C22.593 13.1087 22.1802 12.1137 22.179 11.0758V4.92188C22.179 4.61107 22.3024 4.313 22.5222 4.09323C22.742 3.87347 23.04 3.75 23.3508 3.75C23.6616 3.75 23.9597 3.87347 24.1795 4.09323C24.3992 4.313 24.5227 4.61107 24.5227 4.92188V11.0758C24.5231 11.4923 24.6888 11.8917 24.9833 12.1863C25.2779 12.4808 25.6772 12.6465 26.0938 12.6469H32.2477C32.5585 12.6469 32.8566 12.7703 33.0763 12.9901C33.2961 13.2099 33.4196 13.5079 33.4196 13.8188C33.4196 14.1296 33.2961 14.4276 33.0763 14.6474C32.8566 14.8672 32.5585 14.9906 32.2477 14.9906H32.2485Z" fill="#E0E0E0"/>
<path d="M12.1875 20.8873C12.1875 20.6287 12.4219 20.4014 12.7875 20.4014H14.9219C16.2867 20.4014 17.3625 21.0428 17.3625 22.7803V22.8318C17.3625 24.5693 16.2453 25.2311 14.818 25.2311H13.7969V27.4646C13.7969 27.7959 13.3938 27.9607 12.9898 27.9607C12.5859 27.9607 12.1875 27.7959 12.1875 27.4646V20.8873ZM13.8008 21.8076V23.9896H14.8242C15.4031 23.9896 15.7555 23.6592 15.7555 22.9561V22.842C15.7555 22.1389 15.4031 21.8076 14.8242 21.8076H13.8008Z" fill="#E0E0E0"/>
<path d="M20.6009 20.4014C22.0282 20.4014 23.1454 21.0631 23.1454 22.842V25.5209C23.1454 27.299 22.0282 27.9607 20.6009 27.9607H18.7704C18.3469 27.9607 18.0673 27.7334 18.0673 27.4748V20.8873C18.0673 20.6287 18.3469 20.4014 18.7704 20.4014H20.6009ZM19.6805 21.8076V26.5545H20.6009C21.1805 26.5545 21.5321 26.224 21.5321 25.5209V22.842C21.5321 22.1389 21.1805 21.8076 20.6009 21.8076H19.6805Z" fill="#E0E0E0"/>
<path d="M24.1687 20.8982C24.1687 20.567 24.5203 20.4014 24.8719 20.4014H28.4602C28.8016 20.4014 28.9469 20.7639 28.9469 21.0943C28.9469 21.4771 28.7711 21.8076 28.4602 21.8076H25.7812V23.5561H27.3437C27.6562 23.5561 27.8297 23.8553 27.8297 24.1865C27.8297 24.4654 27.6852 24.7967 27.3437 24.7967H25.7812V27.4646C25.7812 27.7959 25.3781 27.9607 24.975 27.9607C24.5719 27.9607 24.168 27.7959 24.168 27.4646L24.1687 20.8982Z" fill="#E0E0E0"/>
</svg>
