<svg width="50" height="50" viewBox="0 0 50 50" fill="none" xmlns="http://www.w3.org/2000/svg">
<rect width="50" height="50" rx="25" fill="#FBBC05"/>
<path d="M18.4948 36H31.4827C33.7152 36 35.6925 34.4974 36.2899 32.3467L37.8596 26.699C38.218 25.41 37.7434 24.0793 36.6484 23.3084C35.5542 22.5383 34.14 22.5407 33.0474 23.3125L32.5106 23.6922C32.3117 23.8338 32.1104 23.8117 32.0089 23.7855C31.9074 23.7601 31.7208 23.684 31.6128 23.4655L27.7876 15.7374C27.2573 14.6662 26.1844 14 24.9887 14C23.7931 14 22.7202 14.6662 22.189 15.7383L18.3647 23.4655C18.2566 23.684 18.0701 23.7601 17.9686 23.7855C17.8671 23.8117 17.6666 23.8322 17.4677 23.693L16.93 23.3125C15.8358 22.5391 14.4217 22.5383 13.3291 23.3084C12.2341 24.0793 11.7594 25.41 12.1179 26.6982L13.6876 32.3467C14.285 34.4974 16.2622 36 18.4948 36ZM14.776 25.3642C14.8399 25.3192 14.9684 25.2463 15.1304 25.2463C15.2351 25.2463 15.3538 25.2766 15.4782 25.365L16.0167 25.7464C16.7639 26.2726 17.6977 26.4502 18.5865 26.2227C19.472 25.9984 20.2126 25.3994 20.6185 24.5802L24.442 16.8537C24.5943 16.5468 24.875 16.5141 24.9887 16.5141C25.1025 16.5141 25.3832 16.5468 25.5346 16.8529L29.3589 24.5802C29.7649 25.3994 30.5055 25.9984 31.391 26.2227C32.2781 26.4494 33.2144 26.2726 33.9616 25.7455L34.4993 25.365C34.816 25.1424 35.0967 25.2897 35.2014 25.3642C35.307 25.4387 35.5411 25.6514 35.4371 26.0254L33.8675 31.674C33.5712 32.7412 32.5908 33.4859 31.4827 33.4859H18.4948C17.3867 33.4859 16.4063 32.7412 16.11 31.674L14.5403 26.0246C14.4364 25.6514 14.6705 25.4387 14.776 25.3642Z" fill="#2F2F2F"/>
</svg>
