<svg width="20" height="20" viewBox="0 0 20 20" fill="none" xmlns="http://www.w3.org/2000/svg">
<path d="M11.126 3.44899C12.4363 4.21919 13.9253 4.64476 15.422 4.85391C15.8691 4.91772 16.2933 4.99926 16.5845 5.37731C16.798 5.69833 16.8251 5.94816 16.8243 6.32738C16.8245 6.37198 16.8246 6.41658 16.8248 6.46117C16.8253 6.58195 16.8253 6.70273 16.8252 6.82351C16.8252 6.92492 16.8253 7.02634 16.8255 7.12775C16.8259 7.36773 16.8259 7.6077 16.8257 7.84767C16.8255 8.09336 16.8259 8.33904 16.8266 8.58473C16.8272 8.79693 16.8274 9.00913 16.8273 9.22133C16.8272 9.34748 16.8273 9.47363 16.8278 9.59978C16.8347 11.638 16.2101 13.5507 14.7876 15.0487C14.7345 15.1021 14.6807 15.1545 14.6262 15.2064C14.5995 15.233 14.5728 15.2597 14.5453 15.2872C14.5173 15.3153 14.4892 15.3433 14.4603 15.3722C14.444 15.39 14.4278 15.4079 14.411 15.4262C14.1787 15.673 13.9039 15.8695 13.6312 16.0687C13.6117 16.083 13.5923 16.0973 13.5723 16.112C13.1917 16.3881 12.773 16.604 12.3607 16.8281C12.145 16.9454 11.9303 17.0646 11.7157 17.184C11.6793 17.2041 11.6429 17.2243 11.6053 17.2451C11.419 17.3485 11.2334 17.453 11.0488 17.5594C11.0118 17.5806 10.9748 17.6018 10.9367 17.6236C10.867 17.6635 10.7976 17.7038 10.7284 17.7444C10.3931 17.936 10.0408 18.0603 9.65438 17.9699C9.38122 17.8894 9.1464 17.7765 8.90067 17.6338C8.86189 17.6117 8.82309 17.5897 8.78427 17.5677C8.70395 17.5221 8.62374 17.4764 8.5436 17.4305C8.35413 17.3222 8.16293 17.217 7.97198 17.1114C7.89778 17.0701 7.82358 17.0289 7.7494 16.9876C7.60156 16.9053 7.45349 16.8235 7.30527 16.7419C6.92645 16.5328 6.55256 16.3226 6.20167 16.0687C6.17404 16.0487 6.17404 16.0487 6.14585 16.0284C5.9033 15.8512 5.67913 15.6592 5.46059 15.4533C5.37442 15.372 5.37442 15.372 5.28491 15.3028C5.21386 15.2454 5.15752 15.1889 5.09886 15.1193C5.01269 15.0181 4.92413 14.9201 4.83352 14.8229C4.02769 13.9255 3.48006 12.7788 3.19381 11.6139C3.1875 11.5889 3.1812 11.5638 3.1747 11.538C3.15298 11.4455 3.1349 11.3528 3.11711 11.2595C3.11307 11.2384 3.10903 11.2173 3.10487 11.1955C3.00444 10.6498 3.00229 10.1049 3.00315 9.55221C3.00326 9.44941 3.00305 9.34662 3.00285 9.24382C3.00239 9.00134 3.00244 8.75887 3.00282 8.51639C3.0032 8.26733 3.00273 8.01828 3.00184 7.76922C3.00111 7.55386 3.00089 7.3385 3.00108 7.12314C3.00119 6.99516 3.00112 6.86718 3.00054 6.73919C3.00003 6.61915 3.00016 6.49912 3.00079 6.37908C3.00096 6.31459 3.0005 6.25009 3 6.1856C3.0032 5.80278 3.10926 5.49721 3.38245 5.22301C3.74106 4.92751 4.17092 4.88834 4.61714 4.82437C6.19349 4.59574 7.69271 4.06093 9.06611 3.25499C9.84904 2.79909 10.3827 3.01064 11.126 3.44899ZM9.71003 4.15699C9.67411 4.17739 9.6382 4.1978 9.6012 4.21882C9.582 4.22977 9.5628 4.24072 9.54302 4.25201C7.95488 5.15479 6.20226 5.78801 4.37605 5.96979C4.25017 5.9852 4.19689 5.99354 4.11213 6.08536C4.08109 6.17849 4.0748 6.23459 4.07475 6.33087C4.07466 6.36074 4.07457 6.39062 4.07447 6.4214C4.07454 6.45412 4.07461 6.48683 4.07467 6.52054C4.07462 6.55507 4.07456 6.58961 4.0745 6.62519C4.07435 6.73991 4.07445 6.85462 4.07456 6.96934C4.07454 7.04941 4.07451 7.12948 4.07447 7.20954C4.07442 7.37793 4.07449 7.54631 4.07464 7.71469C4.07483 7.92875 4.07472 8.1428 4.07452 8.35686C4.0744 8.52262 4.07444 8.68838 4.07453 8.85414C4.07455 8.93293 4.07452 9.01171 4.07445 9.0905C4.06823 9.99513 4.06823 9.99513 4.1681 10.8925C4.17389 10.9257 4.17967 10.9588 4.18563 10.9929C4.48565 12.6303 5.42715 14.1788 6.79869 15.14C6.81649 15.1529 6.83429 15.1657 6.85263 15.1789C7.18014 15.414 7.53024 15.6026 7.88556 15.792C8.07991 15.8957 8.27186 16.0032 8.46327 16.1123C8.74489 16.2722 9.0271 16.431 9.31029 16.5881C9.35339 16.6121 9.39646 16.6361 9.43949 16.6601C9.4997 16.6937 9.56002 16.7272 9.62037 16.7606C9.65512 16.7799 9.68986 16.7992 9.72566 16.8191C9.83333 16.8751 9.83333 16.8751 9.94958 16.8979C10.0353 16.8666 10.0353 16.8666 10.1244 16.8147C10.1589 16.7959 10.1934 16.7771 10.229 16.7577C10.2661 16.7369 10.3032 16.7161 10.3414 16.6948C10.3804 16.6733 10.4194 16.6518 10.4585 16.6304C10.5766 16.5654 10.6943 16.4996 10.8119 16.4336C10.8448 16.4151 10.8777 16.3967 10.9116 16.3777C11.0342 16.3087 11.1566 16.2395 11.2788 16.1699C11.4591 16.0672 11.6402 15.9662 11.8222 15.8667C11.8435 15.8551 11.8648 15.8435 11.8867 15.8315C12.0572 15.7382 12.0572 15.7382 12.1392 15.6938C12.7074 15.3865 13.2287 15.0214 13.6975 14.5762C13.7148 14.56 13.7321 14.5437 13.7499 14.527C14.9333 13.4112 15.6596 11.8272 15.7389 10.2019C15.7403 10.1734 15.7417 10.145 15.7432 10.1156C15.7601 9.73599 15.76 9.35617 15.7606 8.97622C15.7607 8.93679 15.7608 8.89735 15.7609 8.85672C15.7614 8.649 15.7617 8.44128 15.7618 8.23356C15.762 8.01944 15.7628 7.80531 15.7638 7.59119C15.7644 7.42573 15.7645 7.26028 15.7646 7.09482C15.7647 7.01581 15.765 6.9368 15.7654 6.85779C15.766 6.74787 15.7659 6.63798 15.7657 6.52807C15.766 6.49559 15.7663 6.46312 15.7666 6.42965C15.7656 6.26686 15.764 6.14947 15.6544 6.01902C15.5885 5.98736 15.5885 5.98736 15.5116 5.97989C15.482 5.97529 15.4524 5.97068 15.422 5.96593C15.3892 5.96156 15.3564 5.95719 15.3227 5.95269C15.2494 5.94158 15.176 5.93043 15.1027 5.91926C15.0628 5.91337 15.023 5.90749 14.9819 5.90142C13.2753 5.64469 11.6282 5.06147 10.1456 4.17498C10.1209 4.16023 10.0961 4.14549 10.0706 4.1303C10.0378 4.11054 10.0378 4.11054 10.0044 4.09038C9.88643 4.02965 9.81659 4.0958 9.71003 4.15699Z" fill="white"/>
<path d="M12.4372 8.16592C12.6017 8.25402 12.7098 8.3633 12.7688 8.54009C12.7767 8.60694 12.7767 8.60694 12.7791 8.68105C12.781 8.71722 12.781 8.71722 12.7829 8.75412C12.7425 8.99582 12.5574 9.16564 12.3936 9.33403C12.3457 9.38403 12.2978 9.43404 12.25 9.48406C12.2258 9.50919 12.2016 9.53432 12.1767 9.56021C12.0684 9.67324 11.9615 9.78762 11.8546 9.90202C11.8134 9.94595 11.7723 9.98987 11.7311 10.0338C11.7108 10.0555 11.6905 10.0771 11.6696 10.0995C11.5661 10.2099 11.4626 10.3203 11.3591 10.4306C11.3177 10.4748 11.2762 10.5191 11.2348 10.5633C11.1519 10.6517 11.0689 10.7402 10.986 10.8286C10.9655 10.8505 10.9449 10.8725 10.9238 10.895C10.8825 10.939 10.8413 10.983 10.8 11.027C10.693 11.1411 10.586 11.2554 10.4792 11.3698C10.4571 11.3934 10.4351 11.417 10.4124 11.4413C10.3707 11.4859 10.329 11.5305 10.2874 11.5752C10.2303 11.6362 10.173 11.6969 10.1154 11.7573C10.0951 11.7786 10.0748 11.8 10.054 11.822C10.0339 11.8427 10.0138 11.8634 9.99307 11.8847C9.9662 11.9125 9.9662 11.9125 9.93878 11.9409C9.79029 12.0707 9.64362 12.0743 9.45255 12.0699C9.28815 12.0467 9.20432 11.9692 9.08719 11.8568C9.0383 11.8126 8.98941 11.7683 8.94051 11.7241C8.88828 11.6766 8.83649 11.6286 8.7848 11.5805C8.68804 11.4909 8.5895 11.404 8.48992 11.3176C8.41189 11.2494 8.33494 11.18 8.258 11.1106C8.15915 11.0213 8.05991 10.9327 7.9595 10.8452C7.93855 10.8268 7.9176 10.8084 7.89601 10.7895C7.84396 10.7441 7.79156 10.6991 7.73899 10.6542C7.70915 10.6283 7.6793 10.6024 7.64856 10.5757C7.62094 10.552 7.59332 10.5284 7.56486 10.504C7.45479 10.3882 7.4193 10.2756 7.41846 10.1176C7.42302 9.95582 7.45877 9.8374 7.57574 9.71947C7.70309 9.60828 7.80291 9.56344 7.96986 9.55998C8.00661 9.5587 8.00661 9.5587 8.0441 9.55739C8.25312 9.5854 8.39058 9.71833 8.53578 9.85849C8.57389 9.89449 8.61203 9.93046 8.65018 9.96641C8.66837 9.98365 8.68656 10.0009 8.70529 10.0186C8.78672 10.0951 8.87108 10.1679 8.95555 10.241C9.06278 10.3346 9.16781 10.4306 9.27311 10.5264C9.35285 10.5968 9.43478 10.6634 9.51836 10.7291C9.86849 10.3869 9.86849 10.3869 10.1971 10.0245C10.2762 9.93413 10.3626 9.85146 10.4481 9.76728C10.5114 9.70297 10.5707 9.6367 10.6295 9.56828C10.7296 9.45181 10.8362 9.34429 10.9456 9.2366C11.0089 9.17229 11.0682 9.10602 11.127 9.0376C11.227 8.9212 11.3336 8.81371 11.443 8.70618C11.5074 8.64064 11.5671 8.57278 11.6266 8.50278C11.8446 8.2498 12.0836 8.03909 12.4372 8.16592Z" fill="white"/>
</svg>
