<svg width="30" height="30" viewBox="0 0 30 30" fill="none" xmlns="http://www.w3.org/2000/svg">
<path d="M30 15C30 23.2843 23.2843 30 15 30C6.71573 30 0 23.2843 0 15C0 6.71573 6.71573 0 15 0C23.2843 0 30 6.71573 30 15ZM2.25 15C2.25 22.0416 7.95837 27.75 15 27.75C22.0416 27.75 27.75 22.0416 27.75 15C27.75 7.95837 22.0416 2.25 15 2.25C7.95837 2.25 2.25 7.95837 2.25 15Z" fill="white" fill-opacity="0.6"/>
<circle cx="15" cy="15" r="12" fill="#FFC300"/>
<path d="M15 8.7877C15.3157 8.91986 15.4992 9.28665 15.664 9.56895C15.7112 9.71033 15.7157 9.81084 15.7031 9.95958C15.6757 9.99905 15.6483 10.0385 15.6201 10.0792C15.5838 10.136 15.5838 10.136 15.5468 10.194C15.5899 10.3644 15.6647 10.5201 15.7373 10.6798C16.1636 11.6443 16.121 12.6163 15.8785 13.6199C15.7683 14.0316 15.7683 14.0316 15.7812 14.4518C16.0113 14.7347 16.5553 14.7562 16.8921 14.8204C17.2536 14.89 17.5907 14.9685 17.9296 15.1158C17.9689 15.1325 18.0082 15.1493 18.0487 15.1665C18.5428 15.3943 18.9271 15.7457 19.3017 16.1322C19.3207 16.1517 19.3397 16.1712 19.3592 16.1912C19.4122 16.2467 19.4633 16.304 19.5143 16.3612C19.6008 16.4517 19.6008 16.4517 19.7056 16.4575C19.7375 16.4539 19.7694 16.4502 19.8022 16.4464C19.9365 16.4313 19.9935 16.4407 20.1165 16.5021C20.263 16.624 20.3463 16.7546 20.4419 16.9176C20.4591 16.946 20.4763 16.9745 20.4941 17.0038C20.6183 17.2096 20.6807 17.3273 20.664 17.5768C20.5921 17.7533 20.5198 17.8496 20.3637 17.9576C20.325 17.9845 20.2862 18.0113 20.2462 18.0389C20.0869 18.1435 19.9259 18.2448 19.7637 18.3448C19.5043 18.5051 19.2491 18.6717 18.9941 18.839C18.9723 18.8533 18.9504 18.8676 18.9279 18.8824C18.8187 18.954 18.7094 19.0256 18.6002 19.0973C18.4217 19.2142 18.2429 19.3306 18.0639 19.4469C18.0165 19.4777 18.0165 19.4777 17.9681 19.5091C17.7397 19.6575 17.5109 19.8055 17.2822 19.9534C17.0706 20.0903 16.8592 20.2275 16.6479 20.3648C16.6157 20.3858 16.5835 20.4067 16.5503 20.4283C16.3774 20.5406 16.2047 20.6532 16.0322 20.766C15.979 20.8008 15.979 20.8008 15.9247 20.8362C15.8566 20.8807 15.7885 20.9252 15.7205 20.9698C15.6898 20.9899 15.6591 21.0099 15.6274 21.0306C15.6005 21.0482 15.5735 21.0659 15.5458 21.084C15.3619 21.1972 15.2183 21.2359 15 21.2096C14.6978 21.099 14.4847 20.7002 14.3359 20.4283C14.2888 20.2869 14.2842 20.1864 14.2968 20.0377C14.3242 19.9982 14.3516 19.9587 14.3798 19.9181C14.404 19.8802 14.4282 19.8423 14.4531 19.8033C14.41 19.6329 14.3353 19.4772 14.2627 19.3175C13.8904 18.4753 13.8307 17.5286 14.0625 16.6393C14.2215 16.0973 14.2215 16.0973 14.2187 15.5455C14.0087 15.2607 13.4309 15.2385 13.1079 15.1769C12.7462 15.1073 12.4094 15.0286 12.0703 14.8814C12.0315 14.8652 11.9926 14.8489 11.9526 14.8322C11.3738 14.5681 10.9052 14.1078 10.487 13.6374C10.3995 13.5457 10.3995 13.5457 10.2943 13.5397C10.2624 13.5434 10.2306 13.5471 10.1977 13.5509C10.0635 13.566 10.0064 13.5566 9.88338 13.4952C9.73696 13.3732 9.65357 13.2427 9.55807 13.0797C9.5322 13.037 9.5322 13.037 9.50581 12.9935C9.38159 12.7877 9.31927 12.67 9.3359 12.4205C9.40784 12.244 9.48009 12.1477 9.63619 12.0397C9.69435 11.9994 9.69435 11.9994 9.75369 11.9583C9.9129 11.8539 10.0739 11.7525 10.236 11.6526C10.498 11.4907 10.7556 11.3224 11.0131 11.1534C11.0577 11.1242 11.1022 11.095 11.1468 11.0658C11.2331 11.0092 11.3194 10.9526 11.4058 10.896C11.5602 10.7949 11.715 10.6945 11.8701 10.5943C12.1039 10.4433 12.3374 10.292 12.5708 10.1402C12.6034 10.119 12.636 10.0978 12.6696 10.076C12.7693 10.0111 12.869 9.9463 12.9687 9.88145C13.1976 9.73256 13.4266 9.58371 13.6556 9.43496C13.7495 9.37395 13.8433 9.31284 13.937 9.25172C13.9959 9.21342 14.0548 9.17512 14.1137 9.13682C14.1533 9.11098 14.1533 9.11098 14.1936 9.08462C14.7027 8.75414 14.7027 8.75414 15 8.7877ZM14.5141 9.68126C14.4874 9.69807 14.4606 9.71489 14.4331 9.73222C14.1331 9.92257 13.8385 10.1211 13.5433 10.3189C13.2624 10.5072 12.9804 10.6928 12.6923 10.8702C12.3487 11.0823 12.0123 11.3058 11.6745 11.527C11.5355 11.6178 11.3961 11.7082 11.2568 11.7985C10.8616 12.0546 10.4692 12.3146 10.0781 12.5768C10.1056 12.6748 10.1056 12.6748 10.1562 12.7721C10.2276 12.808 10.2276 12.808 10.3125 12.8111C10.3929 12.7782 10.3929 12.7782 10.4712 12.7217C10.5019 12.7013 10.5326 12.6809 10.5643 12.6598C10.5972 12.6372 10.6301 12.6147 10.664 12.5914C10.7347 12.5442 10.8053 12.497 10.876 12.4498C10.9121 12.4254 10.9482 12.4011 10.9855 12.376C11.153 12.2636 11.3223 12.1541 11.4917 12.0445C11.5569 12.0021 11.6222 11.9597 11.6874 11.9173C11.8874 11.7873 12.0877 11.6578 12.288 11.5283C12.5993 11.327 12.91 11.1248 13.2207 10.9227C13.3192 10.8587 13.4176 10.7947 13.516 10.7308C13.5483 10.7098 13.5805 10.6889 13.6137 10.6673C13.6781 10.6254 13.7425 10.5835 13.807 10.5417C13.9786 10.4302 14.1501 10.3185 14.3216 10.2068C14.3754 10.1717 14.3754 10.1717 14.4304 10.1359C14.4995 10.0908 14.5687 10.0457 14.6379 10.0005C14.6843 9.9703 14.6843 9.9703 14.7317 9.93943C14.7727 9.91268 14.7727 9.91268 14.8146 9.88538C14.8828 9.84239 14.8828 9.84239 14.9609 9.80333C14.9063 9.66484 14.9063 9.66484 14.8437 9.52989C14.7155 9.52989 14.6197 9.61426 14.5141 9.68126ZM14.6362 10.7677C14.6066 10.7869 14.5771 10.8062 14.5466 10.826C14.483 10.8674 14.4194 10.9088 14.3559 10.9503C14.2278 11.0338 14.0996 11.117 13.9714 11.2003C13.8396 11.2859 13.7078 11.3716 13.5761 11.4573C13.4127 11.5636 13.2493 11.6698 13.0859 11.776C13.0208 11.8183 12.9557 11.8606 12.8906 11.9029C12.5 12.1568 12.5 12.1568 12.4021 12.2204C12.3376 12.2624 12.273 12.3044 12.2085 12.3463C12.0374 12.4575 11.8664 12.5686 11.6954 12.6798C11.6596 12.703 11.6239 12.7262 11.5871 12.7501C11.5184 12.7947 11.4498 12.8393 11.3811 12.8839C11.3503 12.904 11.3194 12.924 11.2877 12.9447C11.2605 12.9623 11.2334 12.9799 11.2054 12.9981C11.1419 13.0396 11.0787 13.0816 11.0156 13.1236C11.2576 13.6733 11.9164 14.104 12.4551 14.3187C12.8461 14.4634 13.2458 14.5447 13.6567 14.6115C14.0354 14.6762 14.4627 14.78 14.7265 15.0768C15.0047 15.5352 14.8858 16.0668 14.7658 16.5574C14.5127 17.6056 14.577 18.4367 15.039 19.4127C15.3157 19.2682 15.5738 19.0992 15.8321 18.9245C15.9494 18.8452 16.0671 18.7664 16.1848 18.6876C16.2078 18.6722 16.2308 18.6569 16.2544 18.641C16.4236 18.5281 16.5943 18.4182 16.7675 18.3116C17.1346 18.0857 17.4941 17.8483 17.8546 17.6123C18.0685 17.4725 18.2829 17.3335 18.4972 17.1944C18.6603 17.0885 18.8228 16.9819 18.9843 16.8736C18.7294 16.2947 18.0459 15.8759 17.4789 15.6456C17.1096 15.5212 16.7312 15.4511 16.3471 15.3878C15.9676 15.3216 15.538 15.2182 15.2734 14.9205C14.9952 14.4621 15.1141 13.9304 15.2341 13.4399C15.4872 12.3916 15.4229 11.5605 14.9609 10.5846C14.8571 10.5846 14.7243 10.71 14.6362 10.7677ZM19.5288 17.2756C19.4981 17.296 19.4673 17.3164 19.4357 17.3374C19.4028 17.36 19.3698 17.3826 19.3359 17.4059C19.2651 17.4532 19.1943 17.5005 19.1235 17.5478C19.0873 17.5722 19.0512 17.5965 19.0139 17.6217C18.8491 17.7323 18.6823 17.84 18.5156 17.9479C18.4506 17.9901 18.3857 18.0323 18.3207 18.0745C18.2885 18.0954 18.2563 18.1164 18.2231 18.1379C18.1239 18.2024 18.0247 18.2669 17.9255 18.3315C17.5942 18.547 17.2626 18.7622 16.9307 18.9768C16.719 19.1137 16.5077 19.2509 16.2963 19.3883C16.2642 19.4092 16.232 19.4301 16.1989 19.4516C16.0251 19.5646 15.8515 19.6776 15.6779 19.7908C15.6421 19.8142 15.6062 19.8375 15.5693 19.8616C15.5002 19.9066 15.4311 19.9516 15.3621 19.9967C15.3156 20.027 15.3156 20.027 15.2682 20.0578C15.2409 20.0757 15.2135 20.0935 15.1853 20.1119C15.1171 20.1549 15.1171 20.1549 15.039 20.1939C15.0936 20.3324 15.0936 20.3324 15.1562 20.4674C15.3244 20.4074 15.4701 20.3211 15.6201 20.2257C15.6468 20.2088 15.6735 20.192 15.7011 20.1746C16.0576 19.9488 16.4102 19.7169 16.7633 19.4857C16.9329 19.3748 17.1029 19.2643 17.2729 19.1539C17.3368 19.1124 17.4007 19.0709 17.4646 19.0294C17.5118 18.9987 17.5118 18.9987 17.5599 18.9674C17.6584 18.9035 17.7568 18.8395 17.8552 18.7755C17.8881 18.7541 17.921 18.7327 17.9549 18.7107C18.0209 18.6678 18.0869 18.6248 18.1528 18.5819C18.3035 18.484 18.4542 18.3862 18.6053 18.2889C19.0473 18.0042 19.485 17.7131 19.9218 17.4205C19.8944 17.3225 19.8944 17.3225 19.8437 17.2252C19.712 17.1579 19.6454 17.1966 19.5288 17.2756Z" fill="white"/>
<path d="M8.16902 10.0527C8.32038 10.0796 8.32038 10.0796 8.4156 10.1431C8.49024 10.2565 8.505 10.3351 8.5157 10.4702C8.47923 10.5651 8.47923 10.5651 8.42048 10.6606C7.32148 12.5399 6.95447 14.739 7.48787 16.8594C7.87206 18.2882 8.60301 19.477 9.60945 20.5483C9.64351 20.5856 9.64351 20.5856 9.67826 20.6236C9.88299 20.8396 10.1219 21.0177 10.3584 21.1973C10.4038 21.2318 10.4491 21.2665 10.4943 21.3014C11.6053 22.1582 12.9554 22.629 14.336 22.814C14.3934 22.8217 14.3934 22.8217 14.452 22.8295C16.0548 22.9999 17.938 22.6653 19.2969 21.7593C19.2611 21.7585 19.2252 21.7577 19.1883 21.7569C19.0549 21.7539 18.9215 21.7505 18.7882 21.7469C18.7305 21.7454 18.6728 21.744 18.6152 21.7428C18.5322 21.741 18.4492 21.7387 18.3662 21.7364C18.3162 21.7352 18.2663 21.7339 18.2149 21.7327C18.0958 21.7212 18.0283 21.7072 17.9298 21.6421C17.8491 21.5384 17.8518 21.4824 17.8565 21.3491C17.8947 21.1963 17.9251 21.1521 18.0469 21.0562C18.1504 21.0366 18.1504 21.0366 18.2696 21.0366C18.3366 21.036 18.3366 21.036 18.4051 21.0354C18.4773 21.0361 18.4773 21.0361 18.5509 21.0368C18.6005 21.0367 18.6502 21.0367 18.7013 21.0366C18.8062 21.0367 18.9111 21.037 19.016 21.0379C19.1501 21.039 19.2843 21.0389 19.4184 21.0384C19.5467 21.0381 19.6751 21.0387 19.8034 21.0392C19.8755 21.039 19.8755 21.039 19.949 21.0389C19.9939 21.0394 20.0387 21.0399 20.0849 21.0404C20.1242 21.0406 20.1636 21.0408 20.2041 21.041C20.3315 21.0588 20.4045 21.0978 20.5079 21.1733C20.628 21.3515 20.6463 21.5107 20.6251 21.7202C20.5929 21.8589 20.5484 21.9924 20.5024 22.127C20.4898 22.165 20.4771 22.2031 20.4641 22.2422C20.4374 22.3222 20.4105 22.4021 20.3833 22.4819C20.342 22.6037 20.3015 22.7257 20.2612 22.8478C20.235 22.9258 20.2088 23.0037 20.1826 23.0816C20.1646 23.136 20.1646 23.136 20.1462 23.1915C20.0751 23.3987 20.002 23.5933 19.8438 23.7515C19.6679 23.7764 19.5354 23.7833 19.3897 23.6758C19.2604 23.3878 19.4156 23.053 19.5142 22.7725C19.5335 22.7162 19.5335 22.7162 19.5532 22.6587C19.5847 22.5671 19.6164 22.4756 19.6485 22.3843C19.6054 22.4084 19.5622 22.4325 19.5177 22.4574C17.4202 23.6077 14.9948 23.8719 12.6954 23.2046C11.2968 22.7728 10.1225 22.016 9.06257 21.0171C9.01967 20.9767 9.01967 20.9767 8.9759 20.9355C8.76454 20.7304 8.5795 20.5069 8.39851 20.2749C8.3735 20.243 8.3735 20.243 8.34798 20.2104C7.16525 18.6877 6.54256 16.8211 6.55037 14.8989C6.55044 14.8626 6.55051 14.8263 6.55058 14.7888C6.55231 14.2654 6.56714 13.7566 6.67976 13.2437C6.68667 13.2104 6.69358 13.1771 6.7007 13.1428C6.88515 12.2645 7.19085 11.4544 7.60261 10.6582C7.6162 10.6315 7.62978 10.6049 7.64378 10.5774C7.91519 10.0659 7.91518 10.0659 8.16902 10.0527Z" fill="white"/>
<path d="M10.5506 6.23612C10.6607 6.25421 10.7107 6.27805 10.7812 6.36551C10.8608 6.63676 10.7628 6.84861 10.6665 7.10526C10.6438 7.16769 10.6438 7.16769 10.6208 7.23137C10.5836 7.33359 10.546 7.43557 10.5078 7.53739C10.5271 7.55673 10.5271 7.55673 10.5468 7.57645C10.5685 7.56528 10.5902 7.5541 10.6126 7.54259C11.5137 7.08326 12.4392 6.76691 13.4374 6.59989C13.4667 6.59482 13.4959 6.58974 13.5261 6.58452C15.677 6.22778 18.0156 6.82849 19.7785 8.08625C20.045 8.2807 20.2997 8.48452 20.5412 8.70957C20.6168 8.77985 20.6945 8.84587 20.7739 8.9119C22.4092 10.3424 23.3186 12.5725 23.4659 14.7058C23.5591 16.4909 23.1347 18.6512 21.9725 20.07C21.8819 20.1405 21.7878 20.1314 21.6772 20.1263C21.5658 20.1104 21.5163 20.0864 21.4453 19.9983C21.3914 19.8548 21.3834 19.7795 21.4427 19.6376C21.5061 19.5219 21.5734 19.4088 21.6406 19.2952C22.1839 18.3273 22.5281 17.3449 22.6953 16.2483C22.6994 16.2217 22.7035 16.195 22.7078 16.1676C22.7487 15.8613 22.7438 15.5509 22.7441 15.2425C22.7441 15.212 22.7441 15.1816 22.7442 15.1502C22.7435 14.661 22.7169 14.1895 22.6171 13.7093C22.6104 13.6758 22.6037 13.6423 22.5968 13.6079C22.3858 12.5767 21.9788 11.5617 21.3671 10.7015C21.3391 10.6621 21.3111 10.6227 21.2823 10.5821C20.8067 9.93281 20.278 9.3569 19.6331 8.87381C19.5778 8.83216 19.5233 8.78948 19.4689 8.74665C17.8824 7.52912 15.747 7.03309 13.7792 7.27128C12.7181 7.41343 11.7737 7.76286 10.8203 8.24051C10.8203 8.2534 10.8203 8.2663 10.8203 8.27958C10.8573 8.27994 10.8944 8.28031 10.9325 8.28068C11.0703 8.2824 11.208 8.28481 11.3457 8.28768C11.4053 8.28878 11.4649 8.28961 11.5244 8.29016C11.6102 8.291 11.6958 8.29282 11.7816 8.29484C11.8331 8.29565 11.8847 8.29647 11.9378 8.29732C12.0899 8.32181 12.1363 8.35221 12.2265 8.47489C12.2656 8.60917 12.2656 8.60917 12.2656 8.74833C12.1841 8.88221 12.1416 8.93289 11.9921 8.9827C11.9347 8.98635 11.8771 8.98781 11.8196 8.98789C11.784 8.98798 11.7485 8.98808 11.7119 8.98818C11.5422 8.98732 11.3725 8.98612 11.2028 8.98415C11.0993 8.98314 10.9959 8.98253 10.8925 8.98247C10.7521 8.98234 10.6117 8.98095 10.4713 8.97881C10.4162 8.97815 10.3611 8.97789 10.3061 8.97803C9.81294 8.97872 9.81294 8.97872 9.63389 8.83164C9.52023 8.71553 9.49434 8.61894 9.48096 8.4557C9.48416 8.23848 9.55889 8.04681 9.6319 7.8444C9.64627 7.80359 9.66064 7.76279 9.67545 7.72074C9.70581 7.63491 9.73643 7.54916 9.76727 7.4635C9.81436 7.33242 9.86043 7.20102 9.90641 7.06955C9.9361 6.98602 9.96586 6.9025 9.99567 6.81901C10.0094 6.77978 10.0231 6.74055 10.0372 6.70014C10.0505 6.66362 10.0638 6.6271 10.0775 6.58947C10.0889 6.55746 10.1004 6.52544 10.1122 6.49245C10.2168 6.28349 10.3273 6.22281 10.5506 6.23612Z" fill="white"/>
</svg>
