<svg width="5" height="22" viewBox="0 0 5 22" fill="none" xmlns="http://www.w3.org/2000/svg">
<path d="M2.0625 3.125C1.78071 3.125 1.51046 3.01306 1.3112 2.8138C1.11194 2.61454 1 2.34429 1 2.0625C1 1.78071 1.11194 1.51046 1.3112 1.3112C1.51046 1.11194 1.78071 1 2.0625 1C2.34429 1 2.61454 1.11194 2.8138 1.3112C3.01306 1.51046 3.125 1.78071 3.125 2.0625C3.125 2.34429 3.01306 2.61454 2.8138 2.8138C2.61454 3.01306 2.34429 3.125 2.0625 3.125ZM2.0625 11.625C1.78071 11.625 1.51046 11.5131 1.3112 11.3138C1.11194 11.1145 1 10.8443 1 10.5625C1 10.2807 1.11194 10.0105 1.3112 9.8112C1.51046 9.61194 1.78071 9.5 2.0625 9.5C2.34429 9.5 2.61454 9.61194 2.8138 9.8112C3.01306 10.0105 3.125 10.2807 3.125 10.5625C3.125 10.8443 3.01306 11.1145 2.8138 11.3138C2.61454 11.5131 2.34429 11.625 2.0625 11.625ZM2.0625 20.125C1.78071 20.125 1.51046 20.0131 1.3112 19.8138C1.11194 19.6145 0.999999 19.3443 0.999999 19.0625C0.999999 18.7807 1.11194 18.5105 1.3112 18.3112C1.51046 18.1119 1.78071 18 2.0625 18C2.34429 18 2.61454 18.1119 2.8138 18.3112C3.01306 18.5105 3.125 18.7807 3.125 19.0625C3.125 19.3443 3.01306 19.6145 2.8138 19.8138C2.61454 20.0131 2.34429 20.125 2.0625 20.125Z" stroke="#E5E5E5" stroke-width="2" stroke-linecap="round" stroke-linejoin="round"/>
</svg>
