<svg width="34" height="34" viewBox="0 0 34 34" fill="none" xmlns="http://www.w3.org/2000/svg">
<rect width="34" height="34" rx="17" fill="white" fill-opacity="0.2"/>
<path fill-rule="evenodd" clip-rule="evenodd" d="M16.6649 8C11.8793 8 7.9999 11.8794 7.9999 16.665C7.9999 18.2187 8.40958 19.679 9.12709 20.9413L8.04436 24.1895C7.94058 24.5008 8.02162 24.8441 8.25369 25.0762C8.48577 25.3082 8.82905 25.3893 9.14041 25.2855L12.3886 24.2028C13.6509 24.9203 15.1111 25.33 16.6649 25.33C21.4504 25.33 25.3298 21.4505 25.3298 16.665C25.3298 11.8794 21.4504 8 16.6649 8ZM15.7984 12.3325H17.5314V15.7985H20.9973V17.5315H17.5314V20.9975H15.7984V17.5315H12.3324V15.7985H15.7984V12.3325Z" fill="white"/>
</svg>
