<svg width="40" height="40" viewBox="0 0 40 40" fill="none" xmlns="http://www.w3.org/2000/svg">
<rect width="40" height="40" rx="20" fill="white"/>
<path d="M14.3139 29H24.9404C26.767 29 28.3848 27.7706 28.8736 26.0109L30.1578 21.3901C30.4511 20.3355 30.0628 19.2467 29.1668 18.6159C28.2716 17.9859 27.1145 17.9879 26.2206 18.6193L25.7814 18.93C25.6187 19.0458 25.4539 19.0278 25.3709 19.0063C25.2879 18.9856 25.1352 18.9233 25.0468 18.7445L21.9172 12.4215C21.4833 11.5451 20.6054 11 19.6271 11C18.6489 11 17.771 11.545 17.3365 12.4222L14.2075 18.7445C14.1191 18.9233 13.9664 18.9856 13.8834 19.0063C13.8003 19.0278 13.6363 19.0445 13.4736 18.9307L13.0337 18.6193C12.1384 17.9865 10.9814 17.9859 10.0874 18.616C9.19153 19.2467 8.80316 20.3355 9.09645 21.3894L10.3807 26.0109C10.8695 27.7706 12.4873 29 14.3139 29ZM11.2713 20.298C11.3235 20.2611 11.4287 20.2015 11.5612 20.2015C11.6469 20.2015 11.744 20.2263 11.8458 20.2986L12.2864 20.6107C12.8977 21.0412 13.6617 21.1865 14.3889 21.0004C15.1134 20.8169 15.7194 20.3268 16.0515 19.6565L19.1799 13.3349C19.3044 13.0838 19.5341 13.057 19.6271 13.057C19.7202 13.057 19.9499 13.0838 20.0738 13.3342L23.2028 19.6565C23.5349 20.3268 24.1409 20.8169 24.8654 21.0004C25.5912 21.1858 26.3572 21.0412 26.9686 20.61L27.4085 20.2986C27.6676 20.1165 27.8973 20.237 27.983 20.298C28.0694 20.3589 28.2609 20.533 28.1758 20.839L26.8916 25.4605C26.6492 26.3337 25.847 26.943 24.9404 26.943H14.3139C13.4073 26.943 12.6051 26.3337 12.3627 25.4605L11.0785 20.8383C10.9934 20.533 11.1849 20.3589 11.2713 20.298Z" fill="black" fill-opacity="0.6"/>
</svg>
