<svg width="30" height="30" viewBox="0 0 30 30" fill="none" xmlns="http://www.w3.org/2000/svg">
<path d="M30 15C30 23.2843 23.2843 30 15 30C6.71573 30 0 23.2843 0 15C0 6.71573 6.71573 0 15 0C23.2843 0 30 6.71573 30 15ZM2.25 15C2.25 22.0416 7.95837 27.75 15 27.75C22.0416 27.75 27.75 22.0416 27.75 15C27.75 7.95837 22.0416 2.25 15 2.25C7.95837 2.25 2.25 7.95837 2.25 15Z" fill="white" fill-opacity="0.6"/>
<circle cx="15" cy="15" r="12" fill="#A9A9A9"/>
<g clip-path="url(#clip0_1028_2031)">
<path d="M15 6C13.22 6 11.4799 6.52784 9.99987 7.51677C8.51983 8.50571 7.36628 9.91131 6.68509 11.5558C6.0039 13.2004 5.82567 15.01 6.17294 16.7558C6.5202 18.5016 7.37737 20.1053 8.63604 21.364C9.89472 22.6226 11.4984 23.4798 13.2442 23.8271C14.99 24.1743 16.7996 23.9961 18.4442 23.3149C20.0887 22.6337 21.4943 21.4802 22.4832 20.0001C23.4722 18.5201 24 16.78 24 15C23.9974 12.6138 23.0484 10.3262 21.3611 8.63889C19.6738 6.95162 17.3862 6.00258 15 6ZM15 22.5C13.5166 22.5 12.0666 22.0601 10.8332 21.236C9.59986 20.4119 8.63856 19.2406 8.07091 17.8701C7.50325 16.4997 7.35473 14.9917 7.64411 13.5368C7.9335 12.082 8.64781 10.7456 9.6967 9.6967C10.7456 8.64781 12.082 7.9335 13.5368 7.64411C14.9917 7.35472 16.4997 7.50325 17.8701 8.0709C19.2406 8.63856 20.4119 9.59985 21.236 10.8332C22.0601 12.0666 22.5 13.5166 22.5 15C22.4978 16.9885 21.7069 18.8948 20.3009 20.3009C18.8948 21.7069 16.9885 22.4978 15 22.5Z" fill="#434343"/>
<path d="M15.75 14.6895V10.5C15.75 10.3011 15.671 10.1103 15.5303 9.96967C15.3897 9.82902 15.1989 9.75 15 9.75C14.8011 9.75 14.6103 9.82902 14.4697 9.96967C14.329 10.1103 14.25 10.3011 14.25 10.5V15C14.25 15.1989 14.3291 15.3896 14.4698 15.5302L16.7198 17.7802C16.8612 17.9169 17.0507 17.9925 17.2473 17.9908C17.4439 17.989 17.6321 17.9102 17.7711 17.7711C17.9102 17.6321 17.989 17.4439 17.9908 17.2473C17.9925 17.0507 17.9169 16.8612 17.7802 16.7198L15.75 14.6895Z" fill="#434343"/>
</g>
<defs>
<clipPath id="clip0_1028_2031">
<rect width="18" height="18" fill="white" transform="translate(6 6)"/>
</clipPath>
</defs>
</svg>
